<svg width="57" height="19" viewBox="0 0 57 19" fill="none" xmlns="http://www.w3.org/2000/svg">
<g opacity="0.4">
<path d="M6.08803 9.34077H10.2701C11.5533 9.34077 12.5935 8.30056 12.5935 7.01738C12.5935 5.73421 11.5533 4.69399 10.2701 4.69399H6.08803V9.34077ZM6.08803 9.34077H11.1995C12.4827 9.34077 13.5229 10.381 13.5229 11.6642C13.5229 12.9473 12.4827 13.9876 11.1995 13.9876H6.08803V9.34077ZM5.43748 17.705H13.2441C14.8055 17.705 15.5863 17.705 16.1827 17.4011C16.7073 17.1338 17.1338 16.7073 17.4011 16.1827C17.705 15.5863 17.705 14.8055 17.705 13.2441V5.43748C17.705 3.87601 17.705 3.09528 17.4011 2.49888C17.1338 1.97427 16.7073 1.54775 16.1827 1.28044C15.5863 0.976563 14.8055 0.976563 13.2441 0.976563L5.43748 0.976563C3.87601 0.976563 3.09528 0.976563 2.49888 1.28044C1.97427 1.54775 1.54775 1.97427 1.28044 2.49888C0.976562 3.09528 0.976562 3.87601 0.976562 5.43748L0.976562 13.2441C0.976562 14.8055 0.976562 15.5863 1.28044 16.1827C1.54775 16.7073 1.97427 17.1338 2.49888 17.4011C3.09528 17.705 3.87601 17.705 5.43748 17.705Z" stroke="white" stroke-width="1.95254" stroke-linecap="round" stroke-linejoin="round"/>
<path d="M25.4417 15.8853C24.7106 15.8853 24.0496 15.7501 23.4587 15.4797C22.8677 15.2042 22.3995 14.8061 22.054 14.2853C21.7135 13.7645 21.5432 13.126 21.5432 12.3699C21.5432 11.7189 21.6684 11.183 21.9188 10.7624C22.1692 10.3417 22.5072 10.0087 22.9328 9.76336C23.3585 9.51798 23.8342 9.3327 24.36 9.2075C24.8859 9.08231 25.4217 8.98716 25.9675 8.92206C26.6586 8.84194 27.2194 8.77684 27.6501 8.72676C28.0808 8.67168 28.3937 8.58404 28.589 8.46386C28.7843 8.34367 28.882 8.14837 28.882 7.87796V7.82538C28.882 7.16937 28.6967 6.66108 28.3261 6.30053C27.9606 5.93997 27.4147 5.7597 26.6886 5.7597C25.9325 5.7597 25.3365 5.92746 24.9009 6.26297C24.4702 6.59348 24.1723 6.96155 24.007 7.36717L21.8963 6.88643C22.1466 6.18535 22.5122 5.61948 22.9929 5.18882C23.4787 4.75315 24.037 4.43766 24.668 4.24236C25.299 4.04206 25.9625 3.9419 26.6586 3.9419C27.1193 3.9419 27.6075 3.99699 28.1233 4.10716C28.6441 4.21232 29.1299 4.40762 29.5806 4.69306C30.0363 4.9785 30.4093 5.38662 30.6998 5.91744C30.9902 6.44325 31.1355 7.1268 31.1355 7.9681V15.6299H28.9421V14.0525H28.852C28.7067 14.3429 28.4889 14.6283 28.1984 14.9088C27.908 15.1892 27.5349 15.4221 27.0792 15.6073C26.6235 15.7926 26.0777 15.8853 25.4417 15.8853ZM25.93 14.0825C26.5509 14.0825 27.0817 13.9598 27.5224 13.7144C27.9681 13.4691 28.3061 13.1486 28.5365 12.753C28.7718 12.3523 28.8895 11.9242 28.8895 11.4685V9.98119C28.8094 10.0613 28.6541 10.1364 28.4238 10.2065C28.1984 10.2716 27.9406 10.3292 27.6501 10.3793C27.3597 10.4244 27.0767 10.4669 26.8013 10.507C26.5259 10.5421 26.2955 10.5721 26.1102 10.5971C25.6746 10.6522 25.2765 10.7449 24.9159 10.8751C24.5604 11.0053 24.2749 11.1931 24.0596 11.4384C23.8493 11.6788 23.7441 11.9993 23.7441 12.3999C23.7441 12.9558 23.9494 13.3764 24.36 13.6619C24.7707 13.9423 25.294 14.0825 25.93 14.0825ZM42.7727 6.90897L40.7371 7.26952C40.652 7.00912 40.5168 6.76124 40.3315 6.52588C40.1512 6.29051 39.9058 6.09772 39.5954 5.94749C39.2849 5.79726 38.8968 5.72214 38.4311 5.72214C37.7951 5.72214 37.2643 5.86486 36.8386 6.1503C36.413 6.43073 36.2001 6.79379 36.2001 7.23947C36.2001 7.62507 36.3429 7.93555 36.6283 8.17091C36.9137 8.40627 37.3744 8.59907 38.0104 8.7493L39.8432 9.16994C40.9049 9.41532 41.6961 9.7934 42.2169 10.3042C42.7377 10.815 42.9981 11.4785 42.9981 12.2948C42.9981 12.9858 42.7978 13.6018 42.3972 14.1426C42.0016 14.6784 41.4482 15.0991 40.7371 15.4045C40.031 15.71 39.2123 15.8627 38.2808 15.8627C36.9888 15.8627 35.9347 15.5873 35.1185 15.0365C34.3022 14.4806 33.8014 13.6919 33.6162 12.6703L35.787 12.3398C35.9222 12.9057 36.2001 13.3339 36.6208 13.6243C37.0414 13.9097 37.5898 14.0525 38.2658 14.0525C39.0019 14.0525 39.5903 13.8997 40.031 13.5943C40.4717 13.2838 40.692 12.9057 40.692 12.46C40.692 12.0995 40.5568 11.7965 40.2864 11.5511C40.021 11.3057 39.6129 11.1204 39.062 10.9953L37.109 10.5671C36.0324 10.3217 35.2362 9.93112 34.7204 9.39529C34.2096 8.85947 33.9542 8.18092 33.9542 7.35966C33.9542 6.67861 34.1445 6.08269 34.5251 5.57191C34.9056 5.06112 35.4315 4.66301 36.1025 4.37757C36.7735 4.08712 37.5422 3.9419 38.4085 3.9419C39.6554 3.9419 40.637 4.21232 41.3531 4.75315C42.0692 5.28897 42.5424 6.00758 42.7727 6.90897ZM47.5332 11.7164L47.5182 8.97464H47.9088L52.5058 4.09213H55.195L49.9519 9.65068H49.5989L47.5332 11.7164ZM45.4675 15.6299V0.246215H47.7135V15.6299H45.4675ZM52.7537 15.6299L48.6224 10.1464L50.1698 8.57653L55.5105 15.6299H52.7537Z" fill="white"/>
</g>
</svg>
