<svg width="81" height="29" viewBox="0 0 81 29" fill="none" xmlns="http://www.w3.org/2000/svg">
<g opacity="0.4">
<path d="M0.0136558 13.927C-0.198954 12.0005 1.96618 12.3563 3.35899 12.3086C6.28781 12.3086 10.2233 12.7468 12.7746 15.4804V11.8356C13.2519 2.85826 19.973 -0.218077 27.6313 0.0118893C28.9677 0.081313 31.4496 -0.378619 31.1719 1.63901C31.1458 1.77786 30.3475 5.30978 27.8439 8.50327C25.6483 11.3106 21.7303 14.3262 15.3433 13.4888V27.0004C15.3389 28.6709 12.7876 28.7012 12.7746 27.0004C13.0957 19.0427 12.2322 14.8252 3.03357 14.8903C3.85798 16.9296 5.81484 20.4008 9.78501 21.0907C10.4836 21.2122 10.9479 21.876 10.822 22.5789C10.7092 23.2818 10.0323 23.7418 9.34679 23.6203C1.9575 22.3403 0.0917575 14.2785 0.0136558 13.927Z" fill="white"/>
<path d="M27.6132 19.1641C27.6132 19.7965 27.4641 20.3931 27.1658 20.9539C26.8675 21.5147 26.3902 21.9741 25.7339 22.3321C25.0776 22.6781 24.2364 22.8511 23.2102 22.8511H20.955V27.8984H18.9146V15.4591H23.2102C24.1648 15.4591 24.9702 15.6262 25.6265 15.9603C26.2947 16.2824 26.7899 16.7239 27.1121 17.2847C27.4462 17.8456 27.6132 18.472 27.6132 19.1641ZM23.2102 21.1866C23.9858 21.1866 24.5645 21.0136 24.9464 20.6675C25.3282 20.3096 25.5191 19.8084 25.5191 19.1641C25.5191 17.8038 24.7495 17.1237 23.2102 17.1237H20.955V21.1866H23.2102ZM31.5996 19.4683C31.8979 18.9672 32.2917 18.5794 32.7809 18.3049C33.2821 18.0186 33.8727 17.8754 34.5529 17.8754V19.9874H34.0338C33.2344 19.9874 32.6258 20.1902 32.2082 20.5959C31.8025 21.0016 31.5996 21.7056 31.5996 22.7079V27.8984H29.5592V18.0365H31.5996V19.4683ZM40.7061 28.0595C39.7754 28.0595 38.9342 27.8507 38.1824 27.4331C37.4307 27.0035 36.8401 26.4069 36.4105 25.6433C35.981 24.8677 35.7662 23.9727 35.7662 22.9585C35.7662 21.9562 35.9869 21.0673 36.4284 20.2917C36.8699 19.5161 37.4725 18.9195 38.2361 18.5018C38.9998 18.0842 39.853 17.8754 40.7956 17.8754C41.7382 17.8754 42.5914 18.0842 43.3551 18.5018C44.1187 18.9195 44.7213 19.5161 45.1628 20.2917C45.6043 21.0673 45.825 21.9562 45.825 22.9585C45.825 23.9608 45.5983 24.8498 45.1449 25.6254C44.6915 26.4009 44.071 27.0035 43.2835 27.4331C42.5079 27.8507 41.6487 28.0595 40.7061 28.0595ZM40.7061 26.2876C41.2311 26.2876 41.7203 26.1623 42.1738 25.9117C42.6391 25.6611 43.015 25.2853 43.3014 24.7841C43.5877 24.283 43.7309 23.6744 43.7309 22.9585C43.7309 22.2426 43.5937 21.64 43.3193 21.1508C43.0448 20.6496 42.6809 20.2738 42.2275 20.0232C41.774 19.7726 41.2848 19.6473 40.7598 19.6473C40.2348 19.6473 39.7456 19.7726 39.2921 20.0232C38.8506 20.2738 38.4986 20.6496 38.2361 21.1508C37.9736 21.64 37.8424 22.2426 37.8424 22.9585C37.8424 24.0205 38.1109 24.8438 38.6478 25.4285C39.1967 26.0012 39.8828 26.2876 40.7061 26.2876ZM56.8807 22.7258C56.8807 23.0957 56.8569 23.4298 56.8091 23.7281H49.2739C49.3336 24.5157 49.6259 25.1481 50.151 25.6254C50.676 26.1026 51.3203 26.3413 52.084 26.3413C53.1817 26.3413 53.9573 25.8819 54.4108 24.9631H56.6122C56.3139 25.87 55.771 26.6157 54.9835 27.2004C54.2079 27.7731 53.2414 28.0595 52.084 28.0595C51.1413 28.0595 50.2941 27.8507 49.5424 27.4331C48.8026 27.0035 48.2179 26.4069 47.7884 25.6433C47.3708 24.8677 47.1619 23.9727 47.1619 22.9585C47.1619 21.9443 47.3648 21.0553 47.7705 20.2917C48.1881 19.5161 48.7668 18.9195 49.5066 18.5018C50.2583 18.0842 51.1175 17.8754 52.084 17.8754C53.0147 17.8754 53.844 18.0782 54.5718 18.4839C55.2997 18.8896 55.8665 19.4624 56.2722 20.2022C56.6779 20.93 56.8807 21.7713 56.8807 22.7258ZM54.7508 22.0815C54.7389 21.3298 54.4704 20.7272 53.9454 20.2738C53.4204 19.8203 52.7701 19.5936 51.9945 19.5936C51.2905 19.5936 50.6879 19.8203 50.1868 20.2738C49.6856 20.7153 49.3873 21.3178 49.2918 22.0815H54.7508ZM58.2086 22.9585C58.2086 21.9443 58.4114 21.0553 58.8171 20.2917C59.2347 19.5161 59.8075 18.9195 60.5353 18.5018C61.2632 18.0842 62.0985 17.8754 63.0411 17.8754C64.2343 17.8754 65.2187 18.1618 65.9943 18.7345C66.7818 19.2953 67.3128 20.1007 67.5873 21.1508H65.3858C65.2068 20.6616 64.9204 20.2797 64.5267 20.0053C64.1329 19.7308 63.6377 19.5936 63.0411 19.5936C62.2058 19.5936 61.5376 19.8919 61.0365 20.4885C60.5473 21.0732 60.3027 21.8965 60.3027 22.9585C60.3027 24.0205 60.5473 24.8498 61.0365 25.4464C61.5376 26.043 62.2058 26.3413 63.0411 26.3413C64.2224 26.3413 65.0039 25.8222 65.3858 24.7841H67.5873C67.3009 25.7864 66.7639 26.5859 65.9764 27.1825C65.1889 27.7672 64.2105 28.0595 63.0411 28.0595C62.0985 28.0595 61.2632 27.8507 60.5353 27.4331C59.8075 27.0035 59.2347 26.4069 58.8171 25.6433C58.4114 24.8677 58.2086 23.9727 58.2086 22.9585ZM73.8984 28.0595C72.9677 28.0595 72.1264 27.8507 71.3747 27.4331C70.623 27.0035 70.0323 26.4069 69.6028 25.6433C69.1732 24.8677 68.9584 23.9727 68.9584 22.9585C68.9584 21.9562 69.1792 21.0673 69.6207 20.2917C70.0622 19.5161 70.6647 18.9195 71.4284 18.5018C72.1921 18.0842 73.0452 17.8754 73.9879 17.8754C74.9305 17.8754 75.7837 18.0842 76.5473 18.5018C77.311 18.9195 77.9136 19.5161 78.3551 20.2917C78.7965 21.0673 79.0173 21.9562 79.0173 22.9585C79.0173 23.9608 78.7906 24.8498 78.3372 25.6254C77.8837 26.4009 77.2633 27.0035 76.4757 27.4331C75.7001 27.8507 74.841 28.0595 73.8984 28.0595ZM73.8984 26.2876C74.4234 26.2876 74.9126 26.1623 75.366 25.9117C75.8314 25.6611 76.2073 25.2853 76.4936 24.7841C76.78 24.283 76.9232 23.6744 76.9232 22.9585C76.9232 22.2426 76.786 21.64 76.5115 21.1508C76.2371 20.6496 75.8732 20.2738 75.4197 20.0232C74.9663 19.7726 74.4771 19.6473 73.9521 19.6473C73.4271 19.6473 72.9378 19.7726 72.4844 20.0232C72.0429 20.2738 71.6909 20.6496 71.4284 21.1508C71.1659 21.64 71.0346 22.2426 71.0346 22.9585C71.0346 24.0205 71.3031 24.8438 71.8401 25.4285C72.3889 26.0012 73.0751 26.2876 73.8984 26.2876Z" fill="white"/>
</g>
</svg>
