<svg width="119" height="27" viewBox="0 0 119 27" fill="none" xmlns="http://www.w3.org/2000/svg">
<g opacity="0.4" clip-path="url(#clip0_2021_208660)">
<path fill-rule="evenodd" clip-rule="evenodd" d="M10.0685 18.7945C9.17838 18.7945 8.32473 18.4409 7.69533 17.8115C7.06592 17.1821 6.71233 16.3285 6.71233 15.4384V0H0V15.4384C0 20.9988 4.508 25.5068 10.0685 25.5068H17.4521V18.7945H10.0685ZM30.2055 6.71233C29.4121 6.71233 28.6266 6.86859 27.8936 7.17218C27.1607 7.47577 26.4947 7.92076 25.9338 8.48172C25.3728 9.04269 24.9278 9.70866 24.6242 10.4416C24.3206 11.1745 24.1644 11.9601 24.1644 12.7534C24.1644 13.5468 24.3206 14.3323 24.6242 15.0653C24.9278 15.7982 25.3728 16.4642 25.9338 17.0251C26.4947 17.5861 27.1607 18.0311 27.8936 18.3347C28.6266 18.6383 29.4121 18.7945 30.2055 18.7945C31.8077 18.7945 33.3443 18.158 34.4772 17.0251C35.6101 15.8922 36.2466 14.3556 36.2466 12.7534C36.2466 11.1512 35.6101 9.61465 34.4772 8.48172C33.3443 7.3488 31.8077 6.71233 30.2055 6.71233ZM17.4521 12.7534C17.4521 5.71018 23.1622 0 30.2055 0C37.2487 0 42.9589 5.71018 42.9589 12.7534C42.9589 19.7967 37.2487 25.5068 30.2055 25.5068C23.1622 25.5068 17.4521 19.7967 17.4521 12.7534ZM102.699 6.71233C101.096 6.71233 99.5598 7.3488 98.4269 8.48172C97.294 9.61465 96.6575 11.1512 96.6575 12.7534C96.6575 14.3556 97.294 15.8922 98.4269 17.0251C99.5598 18.158 101.096 18.7945 102.699 18.7945C104.301 18.7945 105.837 18.158 106.97 17.0251C108.103 15.8922 108.74 14.3556 108.74 12.7534C108.74 11.1512 108.103 9.61465 106.97 8.48172C105.837 7.3488 104.301 6.71233 102.699 6.71233ZM89.9452 12.7534C89.9452 5.71018 95.6554 0 102.699 0C109.742 0 115.452 5.71018 115.452 12.7534C115.452 19.7967 109.742 25.5068 102.699 25.5068C95.6554 25.5068 89.9452 19.7967 89.9452 12.7534ZM57.0548 0C50.0115 0 44.3014 5.71018 44.3014 12.7534C44.3014 19.7967 50.0115 25.5068 57.0548 25.5068H75.8493C77.171 25.5068 78.4456 25.3055 79.6445 24.9323L83.2329 26.8493L87.1045 19.5973C88.088 17.7512 88.6025 15.6916 88.6027 13.5998V12.7534C88.6027 5.71018 82.8926 0 75.8493 0H57.0548ZM81.8904 12.7534C81.8904 11.1512 81.2539 9.61465 80.121 8.48172C78.9881 7.3488 77.4515 6.71233 75.8493 6.71233H57.0548C56.2615 6.71233 55.4759 6.86859 54.743 7.17218C54.01 7.47577 53.3441 7.92076 52.7831 8.48172C52.2221 9.04269 51.7771 9.70866 51.4735 10.4416C51.1699 11.1745 51.0137 11.9601 51.0137 12.7534C51.0137 13.5468 51.1699 14.3323 51.4735 15.0653C51.7771 15.7982 52.2221 16.4642 52.7831 17.0251C53.3441 17.5861 54.01 18.0311 54.743 18.3347C55.4759 18.6383 56.2615 18.7945 57.0548 18.7945H75.8493C77.4434 18.7946 78.9729 18.1646 80.1045 17.0418C81.2361 15.919 81.878 14.3945 81.8904 12.8004V12.7534Z" fill="#EAEAEA"/>
<path d="M118.137 1.67808C118.137 2.12314 117.961 2.54996 117.646 2.86467C117.331 3.17937 116.904 3.35616 116.459 3.35616C116.014 3.35616 115.587 3.17937 115.273 2.86467C114.958 2.54996 114.781 2.12314 114.781 1.67808C114.781 1.23303 114.958 0.8062 115.273 0.491499C115.587 0.176797 116.014 0 116.459 0C116.904 0 117.331 0.176797 117.646 0.491499C117.961 0.8062 118.137 1.23303 118.137 1.67808Z" fill="#EAEAEA"/>
</g>
<defs>
<clipPath id="clip0_2021_208660">
<rect width="118.137" height="26.8493" fill="white"/>
</clipPath>
</defs>
</svg>
