<svg width="94" height="25" viewBox="0 0 94 25" fill="none" xmlns="http://www.w3.org/2000/svg">
<g opacity="0.4">
<path d="M12.042 6.52312L16.5572 4.01465L21.5742 6.97109V17.6141L17.0589 20.5706L7.02502 14.5502V9.0316L17.0589 14.6578V9.53329L12.042 6.52312ZM12.042 6.52312L7.52671 4.01465L2.51011 7.02482L2.50977 17.5604L7.52671 20.5706L12.042 17.5604" stroke="white" stroke-width="1.30169" stroke-linecap="round" stroke-linejoin="round"/>
<path d="M38.1887 4.40344V19.7871H36.0555L28.2359 8.50475H28.0932V19.7871H25.7721V4.40344H27.9204L35.7475 15.7008H35.8902V4.40344H38.1887ZM46.3669 20.02C45.2302 20.02 44.2512 19.7771 43.4299 19.2913C42.6137 18.8006 41.9827 18.112 41.537 17.2257C41.0963 16.3343 40.876 15.2902 40.876 14.0933C40.876 12.9115 41.0963 11.8699 41.537 10.9685C41.9827 10.0672 42.6037 9.36357 43.3999 8.85779C44.2011 8.35202 45.1375 8.09913 46.2092 8.09913C46.8602 8.09913 47.4912 8.20679 48.1021 8.42212C48.713 8.63746 49.2614 8.97548 49.7471 9.43618C50.2329 9.89689 50.616 10.4953 50.8964 11.2314C51.1768 11.9626 51.3171 12.8514 51.3171 13.898V14.6943H42.1454V13.0117H49.1162C49.1162 12.4208 48.996 11.8975 48.7556 11.4418C48.5152 10.9811 48.1772 10.618 47.7416 10.3526C47.3109 10.0872 46.8051 9.95448 46.2242 9.95448C45.5932 9.95448 45.0424 10.1097 44.5717 10.4202C44.106 10.7257 43.7454 11.1263 43.49 11.622C43.2396 12.1128 43.1144 12.6461 43.1144 13.222V14.5365C43.1144 15.3077 43.2496 15.9637 43.5201 16.5046C43.7955 17.0454 44.1786 17.4585 44.6693 17.744C45.1601 18.0244 45.7335 18.1646 46.3895 18.1646C46.8151 18.1646 47.2032 18.1045 47.5538 17.9843C47.9043 17.8591 48.2073 17.6739 48.4627 17.4285C48.7181 17.1831 48.9134 16.8801 49.0486 16.5196L51.1743 16.9027C51.0041 17.5286 50.6986 18.077 50.2579 18.5477C49.8223 19.0134 49.2739 19.3765 48.6129 19.6369C47.9569 19.8923 47.2082 20.02 46.3669 20.02ZM58.669 20.02C57.5523 20.02 56.5908 19.7671 55.7846 19.2613C54.9833 18.7505 54.3674 18.0469 53.9367 17.1506C53.506 16.2542 53.2907 15.2276 53.2907 14.0708C53.2907 12.899 53.5111 11.8649 53.9517 10.9685C54.3924 10.0672 55.0134 9.36357 55.8146 8.85779C56.6158 8.35202 57.5598 8.09913 58.6465 8.09913C59.5228 8.09913 60.304 8.26188 60.9901 8.58738C61.6761 8.90787 62.2295 9.35857 62.6501 9.93946C63.0758 10.5204 63.3287 11.1989 63.4088 11.9751H61.2229C61.1027 11.4343 60.8273 10.9685 60.3966 10.5779C59.971 10.1873 59.4001 9.99204 58.684 9.99204C58.0581 9.99204 57.5097 10.1573 57.039 10.4878C56.5733 10.8133 56.2102 11.279 55.9498 11.885C55.6894 12.4859 55.5592 13.197 55.5592 14.0182C55.5592 14.8595 55.6869 15.5856 55.9423 16.1966C56.1977 16.8075 56.5582 17.2808 57.024 17.6163C57.4947 17.9518 58.048 18.1195 58.684 18.1195C59.1097 18.1195 59.4953 18.0419 59.8408 17.8867C60.1913 17.7264 60.4843 17.4986 60.7196 17.2031C60.96 16.9077 61.1278 16.5521 61.2229 16.1365H63.4088C63.3287 16.8826 63.0858 17.5487 62.6802 18.1346C62.2745 18.7205 61.7312 19.1812 61.0502 19.5167C60.3741 19.8522 59.5804 20.02 58.669 20.02ZM71.1964 8.24936V10.0521H64.8942V8.24936H71.1964ZM66.5843 5.48511H68.8302V16.3994C68.8302 16.8351 68.8953 17.1631 69.0256 17.3834C69.1558 17.5987 69.3235 17.7465 69.5288 17.8266C69.7391 17.9017 69.967 17.9393 70.2124 17.9393C70.3927 17.9393 70.5504 17.9267 70.6856 17.9017C70.8208 17.8767 70.926 17.8566 71.0011 17.8416L71.4067 19.697C71.2765 19.747 71.0912 19.7971 70.8509 19.8472C70.6105 19.9023 70.31 19.9323 69.9495 19.9373C69.3586 19.9474 68.8077 19.8422 68.2969 19.6219C67.7861 19.4015 67.373 19.061 67.0575 18.6003C66.742 18.1396 66.5843 17.5612 66.5843 16.8651V5.48511ZM77.0385 20.0425C76.3074 20.0425 75.6464 19.9073 75.0555 19.6369C74.4645 19.3615 73.9963 18.9633 73.6508 18.4425C73.3103 17.9217 73.14 17.2833 73.14 16.5271C73.14 15.8761 73.2652 15.3403 73.5156 14.9196C73.766 14.499 74.104 14.166 74.5296 13.9206C74.9553 13.6752 75.431 13.4899 75.9568 13.3647C76.4826 13.2395 77.0185 13.1444 77.5643 13.0793C78.2554 12.9992 78.8162 12.9341 79.2469 12.884C79.6776 12.8289 79.9905 12.7413 80.1858 12.6211C80.3811 12.5009 80.4788 12.3056 80.4788 12.0352V11.9826C80.4788 11.3266 80.2935 10.8183 79.9229 10.4578C79.5574 10.0972 79.0115 9.91692 78.2854 9.91692C77.5293 9.91692 76.9333 10.0847 76.4977 10.4202C76.067 10.7507 75.769 11.1188 75.6038 11.5244L73.493 11.0437C73.7434 10.3426 74.109 9.77671 74.5897 9.34605C75.0755 8.91038 75.6338 8.59489 76.2648 8.39959C76.8958 8.19928 77.5593 8.09913 78.2554 8.09913C78.7161 8.09913 79.2043 8.15421 79.7201 8.26438C80.2409 8.36954 80.7267 8.56484 81.1774 8.85028C81.6331 9.13572 82.0061 9.54385 82.2966 10.0747C82.587 10.6005 82.7323 11.284 82.7323 12.1253V19.7871H80.5389V18.2097H80.4487C80.3035 18.5001 80.0857 18.7856 79.7952 19.066C79.5048 19.3464 79.1317 19.5793 78.676 19.7646C78.2203 19.9499 77.6745 20.0425 77.0385 20.0425ZM77.5268 18.2397C78.1477 18.2397 78.6785 18.117 79.1192 17.8717C79.5649 17.6263 79.9029 17.3058 80.1333 16.9102C80.3686 16.5096 80.4863 16.0814 80.4863 15.6257V14.1384C80.4062 14.2185 80.2509 14.2937 80.0206 14.3638C79.7952 14.4289 79.5373 14.4865 79.2469 14.5365C78.9565 14.5816 78.6735 14.6242 78.3981 14.6642C78.1227 14.6993 77.8923 14.7293 77.707 14.7544C77.2714 14.8095 76.8732 14.9021 76.5127 15.0323C76.1571 15.1625 75.8717 15.3503 75.6564 15.5957C75.4461 15.836 75.3409 16.1565 75.3409 16.5571C75.3409 17.113 75.5462 17.5336 75.9568 17.8191C76.3675 18.0995 76.8908 18.2397 77.5268 18.2397ZM85.7237 19.7871V8.24936H87.8946V10.0822H88.0148C88.2251 9.46122 88.5957 8.97297 89.1265 8.61742C89.6623 8.25687 90.2682 8.07659 90.9443 8.07659C91.0845 8.07659 91.2497 8.0816 91.44 8.09162C91.6353 8.10163 91.7881 8.11415 91.8982 8.12917V10.2775C91.8081 10.2524 91.6479 10.2249 91.4175 10.1949C91.1871 10.1598 90.9568 10.1423 90.7264 10.1423C90.1956 10.1423 89.7224 10.2549 89.3068 10.4803C88.8961 10.7006 88.5706 11.0086 88.3302 11.4042C88.0899 11.7948 87.9697 12.2405 87.9697 12.7413V19.7871H85.7237Z" fill="white"/>
</g>
</svg>
