<svg width="87" height="23" viewBox="0 0 87 23" fill="none" xmlns="http://www.w3.org/2000/svg">
<g opacity="0.4">
<path d="M3.79688 1.89844V20.8815" stroke="white" stroke-width="1.95254" stroke-linecap="round" stroke-linejoin="round"/>
<path d="M20.8815 5.69531H1.89844" stroke="white" stroke-width="1.95254" stroke-linecap="round" stroke-linejoin="round"/>
<path d="M18.9833 20.8818L3.79688 5.69531" stroke="white" stroke-width="1.95254" stroke-linecap="round" stroke-linejoin="round"/>
<path d="M3.79688 20.8818L18.9833 5.69531" stroke="white" stroke-width="1.95254" stroke-linecap="round" stroke-linejoin="round"/>
<path d="M12.8138 20.8812L3.79688 11.8643" stroke="white" stroke-width="1.95254" stroke-linecap="round" stroke-linejoin="round"/>
<path d="M18.9818 14.7123L9.96484 5.69531" stroke="white" stroke-width="1.95254" stroke-linecap="round" stroke-linejoin="round"/>
<path d="M3.79688 14.7123L12.3392 5.69531" stroke="white" stroke-width="1.95254" stroke-linecap="round" stroke-linejoin="round"/>
<path d="M9.96484 20.8812L18.9818 11.8643" stroke="white" stroke-width="1.95254" stroke-linecap="round" stroke-linejoin="round"/>
<path d="M20.8815 20.8809H1.89844" stroke="white" stroke-width="1.95254" stroke-linecap="round" stroke-linejoin="round"/>
<path d="M18.9824 1.89844V20.8815" stroke="white" stroke-width="1.95254" stroke-linecap="round" stroke-linejoin="round"/>
<path d="M25.7702 20.7627V5.37903H35.3099V7.3771H28.0912V12.0643H34.6263V14.0549H28.0912V20.7627H25.7702ZM42.1097 20.9956C40.9729 20.9956 39.9939 20.7527 39.1727 20.2669C38.3564 19.7762 37.7254 19.0876 37.2798 18.2013C36.8391 17.3099 36.6187 16.2658 36.6187 15.0689C36.6187 13.8871 36.8391 12.8455 37.2798 11.9441C37.7254 11.0427 38.3464 10.3392 39.1426 9.83338C39.9439 9.3276 40.8803 9.07471 41.9519 9.07471C42.603 9.07471 43.2339 9.18238 43.8449 9.39771C44.4558 9.61304 45.0041 9.95106 45.4899 10.4118C45.9756 10.8725 46.3587 11.4709 46.6392 12.207C46.9196 12.9382 47.0598 13.827 47.0598 14.8736V15.6699H37.8882V13.9873H44.8589C44.8589 13.3964 44.7387 12.8731 44.4984 12.4174C44.258 11.9566 43.92 11.5936 43.4843 11.3282C43.0536 11.0628 42.5479 10.9301 41.967 10.9301C41.336 10.9301 40.7852 11.0853 40.3144 11.3958C39.8487 11.7013 39.4882 12.1019 39.2328 12.5976C38.9824 13.0884 38.8572 13.6217 38.8572 14.1976V15.5121C38.8572 16.2833 38.9924 16.9393 39.2628 17.4801C39.5382 18.021 39.9213 18.4341 40.4121 18.7196C40.9028 19 41.4762 19.1402 42.1322 19.1402C42.5579 19.1402 42.946 19.0801 43.2965 18.9599C43.6471 18.8347 43.95 18.6494 44.2054 18.4041C44.4608 18.1587 44.6561 17.8557 44.7913 17.4952L46.9171 17.8783C46.7468 18.5042 46.4414 19.0526 46.0007 19.5233C45.565 19.989 45.0167 20.3521 44.3556 20.6125C43.6996 20.8679 42.951 20.9956 42.1097 20.9956ZM51.7977 13.9122V20.7627H49.5518V9.22494H51.7076V11.1028H51.8503C52.1157 10.4919 52.5313 10.0011 53.0972 9.63057C53.6681 9.26 54.3867 9.07471 55.253 9.07471C56.0392 9.07471 56.7278 9.23997 57.3187 9.57048C57.9096 9.89598 58.3678 10.3817 58.6933 11.0277C59.0188 11.6737 59.1816 12.4724 59.1816 13.4239V20.7627H56.9356V13.6943C56.9356 12.858 56.7178 12.2045 56.2821 11.7338C55.8464 11.2581 55.248 11.0202 54.4869 11.0202C53.9661 11.0202 53.5028 11.1329 53.0972 11.3582C52.6966 11.5836 52.3786 11.9141 52.1433 12.3498C51.9129 12.7804 51.7977 13.3012 51.7977 13.9122ZM67.0537 20.9956C65.937 20.9956 64.9755 20.7427 64.1693 20.2369C63.368 19.7261 62.7521 19.0225 62.3214 18.1261C61.8907 17.2298 61.6754 16.2032 61.6754 15.0464C61.6754 13.8746 61.8958 12.8405 62.3364 11.9441C62.7771 11.0427 63.3981 10.3392 64.1993 9.83338C65.0005 9.3276 65.9445 9.07471 67.0312 9.07471C67.9075 9.07471 68.6887 9.23746 69.3748 9.56296C70.0608 9.88346 70.6142 10.3342 71.0348 10.915C71.4605 11.4959 71.7134 12.1745 71.7935 12.9507H69.6076C69.4874 12.4098 69.212 11.9441 68.7813 11.5535C68.3557 11.1629 67.7848 10.9676 67.0687 10.9676C66.4428 10.9676 65.8944 11.1329 65.4237 11.4634C64.958 11.7889 64.5949 12.2546 64.3345 12.8605C64.0741 13.4615 63.9439 14.1726 63.9439 14.9938C63.9439 15.8351 64.0716 16.5612 64.327 17.1722C64.5824 17.7831 64.9429 18.2563 65.4087 18.5919C65.8794 18.9274 66.4327 19.0951 67.0687 19.0951C67.4944 19.0951 67.88 19.0175 68.2255 18.8623C68.576 18.702 68.869 18.4742 69.1043 18.1787C69.3447 17.8833 69.5125 17.5277 69.6076 17.1121H71.7935C71.7134 17.8582 71.4705 18.5243 71.0649 19.1102C70.6592 19.6961 70.1159 20.1568 69.4349 20.4923C68.7588 20.8278 67.9651 20.9956 67.0537 20.9956ZM79.168 20.9956C78.0312 20.9956 77.0522 20.7527 76.2309 20.2669C75.4147 19.7762 74.7837 19.0876 74.338 18.2013C73.8973 17.3099 73.677 16.2658 73.677 15.0689C73.677 13.8871 73.8973 12.8455 74.338 11.9441C74.7837 11.0427 75.4047 10.3392 76.2009 9.83338C77.0021 9.3276 77.9386 9.07471 79.0102 9.07471C79.6612 9.07471 80.2922 9.18238 80.9031 9.39771C81.5141 9.61304 82.0624 9.95106 82.5482 10.4118C83.0339 10.8725 83.417 11.4709 83.6974 12.207C83.9779 12.9382 84.1181 13.827 84.1181 14.8736V15.6699H74.9465V13.9873H81.9172C81.9172 13.3964 81.797 12.8731 81.5566 12.4174C81.3163 11.9566 80.9782 11.5936 80.5426 11.3282C80.1119 11.0628 79.6061 10.9301 79.0252 10.9301C78.3943 10.9301 77.8434 11.0853 77.3727 11.3958C76.907 11.7013 76.5464 12.1019 76.291 12.5976C76.0406 13.0884 75.9154 13.6217 75.9154 14.1976V15.5121C75.9154 16.2833 76.0507 16.9393 76.3211 17.4801C76.5965 18.021 76.9796 18.4341 77.4703 18.7196C77.9611 19 78.5345 19.1402 79.1905 19.1402C79.6161 19.1402 80.0042 19.0801 80.3548 18.9599C80.7053 18.8347 81.0083 18.6494 81.2637 18.4041C81.5191 18.1587 81.7144 17.8557 81.8496 17.4952L83.9753 17.8783C83.8051 18.5042 83.4996 19.0526 83.0589 19.5233C82.6233 19.989 82.0749 20.3521 81.4139 20.6125C80.7579 20.8679 80.0092 20.9956 79.168 20.9956Z" fill="white"/>
</g>
</svg>
