<svg width="148" height="27" viewBox="0 0 148 27" fill="none" xmlns="http://www.w3.org/2000/svg">
<g opacity="0.4" clip-path="url(#clip0_2021_208667)">
<path d="M13.4242 26.8493C20.8386 26.8493 26.8488 20.8391 26.8488 13.4247V4.0274C26.8488 2.95927 26.4245 1.93488 25.6692 1.1796C24.914 0.424314 23.8896 0 22.8214 0L14.0954 0V5.8894C14.0954 7.23321 14.1773 8.62534 14.8821 9.76912C15.3866 10.5888 16.0616 11.2904 16.8612 11.8263C17.6608 12.3622 18.5663 12.7198 19.5163 12.8749L19.7734 12.9165C19.8794 12.9528 19.9714 13.0212 20.0365 13.1123C20.1016 13.2034 20.1367 13.3127 20.1367 13.4247C20.1367 13.5367 20.1016 13.6459 20.0365 13.737C19.9714 13.8281 19.8794 13.8966 19.7734 13.9328L19.5163 13.9744C18.1283 14.2011 16.8466 14.8581 15.8521 15.8526C14.8576 16.8471 14.2006 18.1288 13.9739 19.5168L13.9323 19.7738C13.8961 19.8798 13.8276 19.9718 13.7365 20.037C13.6454 20.1021 13.5362 20.1372 13.4242 20.1372C13.3122 20.1372 13.203 20.1021 13.1119 20.037C13.0207 19.9718 12.9523 19.8798 12.916 19.7738L12.8744 19.5168C12.7193 18.5668 12.3617 17.6613 11.8258 16.8617C11.2899 16.0621 10.5883 15.3872 9.76864 14.8826C8.62486 14.1778 7.23272 14.0959 5.88891 14.0959H0.015625C0.36668 21.1982 6.23527 26.8493 13.4242 26.8493Z" fill="#F8F9FA"/>
<path d="M0 12.7534H5.8894C7.23321 12.7534 8.62534 12.6715 9.76912 11.9667C10.6632 11.4159 11.4159 10.6632 11.9667 9.76912C12.6715 8.62534 12.7534 7.23321 12.7534 5.8894V0H4.0274C2.95926 0 1.93488 0.424314 1.1796 1.1796C0.424314 1.93488 0 2.95926 0 4.0274L0 12.7534ZM31.1821 1.34247C31.1821 1.69851 31.0407 2.03997 30.7889 2.29173C30.5372 2.54349 30.1957 2.68493 29.8397 2.68493C29.4836 2.68493 29.1422 2.54349 28.8904 2.29173C28.6386 2.03997 28.4972 1.69851 28.4972 1.34247C28.4972 0.986422 28.6386 0.64496 28.8904 0.393199C29.1422 0.141438 29.4836 0 29.8397 0C30.1957 0 30.5372 0.141438 30.7889 0.393199C31.0407 0.64496 31.1821 0.986422 31.1821 1.34247ZM142.107 8.1246C145.86 8.1246 147.671 10.7458 147.671 13.7818V19.4839H143.744V14.4584C143.744 13.0823 143.242 11.9466 141.802 11.9466C140.362 11.9466 139.882 13.0823 139.882 14.4584V19.4832H135.955V14.4584C135.955 13.0823 135.475 11.9466 134.034 11.9466C132.595 11.9466 132.093 13.0823 132.093 14.4584V19.4832H128.166V13.7811C128.166 10.7451 129.976 8.12393 133.729 8.12393C135.78 8.12393 137.264 8.9321 137.94 10.2645C138.66 8.9321 140.231 8.12326 142.107 8.12326V8.1246ZM121.109 15.9888C122.374 15.9888 122.92 14.8309 122.92 13.4542V8.5609H126.846V13.9348C126.846 17.146 124.97 19.8114 121.109 19.8114C117.246 19.8114 115.37 17.1466 115.37 13.9348V8.5609H119.298V13.4542C119.298 14.8302 119.843 15.9888 121.109 15.9888ZM109.596 19.8329C107.13 19.8329 105.537 18.9811 104.599 17.3212L107.436 15.7263C107.828 16.4251 108.417 16.7748 109.399 16.7748C110.206 16.7748 110.577 16.4909 110.577 16.1411C110.577 14.8087 104.817 16.1633 104.817 11.9258C104.817 9.87182 106.562 8.21186 109.53 8.21186C112.126 8.21186 113.544 9.47848 114.177 10.7021L111.341 12.3185C111.101 11.6633 110.359 11.27 109.617 11.27C109.05 11.27 108.744 11.5103 108.744 11.8379C108.744 13.1924 114.504 11.9473 114.504 16.0539C114.504 18.3475 112.257 19.8329 109.596 19.8329ZM95.8742 24.5081H91.9468V14.0006C91.9468 10.6578 94.4559 8.23334 97.947 8.23334C101.351 8.23334 103.947 10.833 103.947 14.0006C103.947 17.4957 101.634 19.8114 98.1651 19.8114C97.3576 19.8114 96.5508 19.5711 95.8742 19.1993V24.5081ZM97.947 16.1197C99.1908 16.1197 100.02 15.1585 100.02 14.0221C100.02 12.8648 99.1908 11.9251 97.947 11.9251C96.7032 11.9251 95.8742 12.8649 95.8742 14.0227C95.8742 15.1585 96.7032 16.1197 97.947 16.1197ZM88.0127 7.4037C86.7253 7.4037 85.6567 6.33308 85.6567 5.04431C85.6567 3.75555 86.7253 2.68493 88.0127 2.68493C89.3002 2.68493 90.3694 3.75555 90.3694 5.04431C90.3694 6.33308 89.3002 7.4037 88.0127 7.4037ZM86.0494 8.5609H89.9768V19.4839H86.0494V8.5609ZM78.5141 19.8114C75.1103 19.8114 72.514 17.1903 72.514 14.0006C72.514 10.833 75.1103 8.21186 78.5141 8.21186C81.9179 8.21186 84.5143 10.833 84.5143 14.0006C84.5143 17.1903 81.9179 19.8114 78.5141 19.8114ZM78.5141 16.1197C79.7579 16.1197 80.5869 15.1585 80.5869 14.0221C80.5869 12.8648 79.7579 11.9036 78.5141 11.9036C77.2703 11.9036 76.4413 12.8648 76.4413 14.0221C76.4413 15.1585 77.2703 16.1197 78.5141 16.1197ZM65.0982 24.8356C62.3931 24.8356 60.4291 23.6341 59.4256 21.4929L62.6764 19.7457C63.0254 20.4887 63.6799 21.2532 65.0324 21.2532C66.4514 21.2532 67.3891 20.3572 67.4985 18.7845C66.9749 19.2436 66.1453 19.5926 64.9022 19.5926C61.8689 19.5926 59.4249 17.2554 59.4249 13.9784C59.4249 10.8115 62.0219 8.23334 65.4257 8.23334C68.9168 8.23334 71.4259 10.6585 71.4259 14.0006V18.326C71.4259 22.2581 68.698 24.8356 65.0982 24.8356ZM65.36 15.9015C66.538 15.9015 67.4327 15.0927 67.4327 13.8912C67.4327 12.7118 66.5386 11.9251 65.36 11.9251C64.2034 11.9251 63.2872 12.7118 63.2872 13.8918C63.2872 15.0933 64.2034 15.9015 65.36 15.9015ZM52.7636 19.8114C49.3598 19.8114 46.7628 17.1903 46.7628 14.0006C46.7628 10.833 49.3598 8.21186 52.7636 8.21186C56.1668 8.21186 58.7638 10.833 58.7638 14.0006C58.7638 17.1903 56.1674 19.8114 52.7636 19.8114ZM52.7636 16.1197C54.0074 16.1197 54.8364 15.1585 54.8364 14.0221C54.8364 12.8648 54.0074 11.9036 52.7636 11.9036C51.5198 11.9036 50.6908 12.8648 50.6908 14.0221C50.6908 15.1585 51.5198 16.1197 52.7636 16.1197ZM39.6115 4.7389V15.7699H46.1137V19.4839H39.0658C36.5788 19.4839 35.5753 18.173 35.5753 16.0975V4.7389H39.6115Z" fill="#EAEAEA"/>
</g>
<defs>
<clipPath id="clip0_2021_208667">
<rect width="147.671" height="26.8493" fill="white"/>
</clipPath>
</defs>
</svg>
