<svg width="80" height="38" viewBox="0 0 80 38" fill="none" xmlns="http://www.w3.org/2000/svg">
<g clip-path="url(#clip0_47_189201)">
<mask id="path-1-outside-1_47_189201" maskUnits="userSpaceOnUse" x="1" y="7" width="78" height="25" fill="black">
<rect fill="white" x="1" y="7" width="78" height="25"/>
<path d="M9.14062 31.3594C7.60938 31.3594 6.27083 31.0885 5.125 30.5469C3.97917 30.0052 3.07812 29.25 2.42188 28.2812C1.77604 27.3021 1.43229 26.1615 1.39062 24.8594H2.82812C2.90104 26.4219 3.49479 27.6719 4.60938 28.6094C5.73438 29.5469 7.24479 30.0156 9.14062 30.0156C11.0469 30.0156 12.5781 29.5521 13.7344 28.625C14.901 27.6979 15.4844 26.4792 15.4844 24.9688C15.4844 23.8125 15.0885 22.8646 14.2969 22.125C13.5156 21.375 12.2188 20.7344 10.4062 20.2031L7.78125 19.4531C5.77083 18.8698 4.28646 18.1042 3.32812 17.1562C2.36979 16.1979 1.89062 15.0052 1.89062 13.5781C1.89062 12.3698 2.20312 11.3021 2.82812 10.375C3.45312 9.4375 4.3125 8.70312 5.40625 8.17188C6.5 7.63021 7.75521 7.35938 9.17188 7.35938C10.599 7.35938 11.849 7.63542 12.9219 8.1875C13.9948 8.73958 14.8385 9.50521 15.4531 10.4844C16.0677 11.4635 16.4062 12.599 16.4688 13.8906H15.0625C14.9583 12.349 14.375 11.099 13.3125 10.1406C12.2604 9.18229 10.8698 8.70312 9.14062 8.70312C8.01562 8.70312 7.01042 8.91146 6.125 9.32812C5.25 9.74479 4.55729 10.3177 4.04688 11.0469C3.54688 11.7656 3.29688 12.5938 3.29688 13.5312C3.29688 14.625 3.68229 15.5417 4.45312 16.2812C5.23438 17.0208 6.45833 17.6302 8.125 18.1094L10.7812 18.8594C12.875 19.4635 14.4167 20.2552 15.4062 21.2344C16.3958 22.2031 16.8906 23.4323 16.8906 24.9219C16.8906 26.1823 16.5677 27.2969 15.9219 28.2656C15.276 29.2344 14.3698 29.9948 13.2031 30.5469C12.0469 31.0885 10.6927 31.3594 9.14062 31.3594ZM19.6881 31V14.5H21.0631V31H19.6881ZM20.3756 10.5625C20.0735 10.5625 19.8131 10.4583 19.5944 10.25C19.386 10.0312 19.2819 9.77083 19.2819 9.46875C19.2819 9.16667 19.386 8.91146 19.5944 8.70312C19.8131 8.48438 20.0735 8.375 20.3756 8.375C20.6777 8.375 20.9329 8.48438 21.1413 8.70312C21.36 8.91146 21.4694 9.16667 21.4694 9.46875C21.4694 9.77083 21.36 10.0312 21.1413 10.25C20.9329 10.4583 20.6777 10.5625 20.3756 10.5625ZM24.5169 31V14.5H25.845V17.4219H25.8762C26.2512 16.4844 26.8658 15.7396 27.72 15.1875C28.5846 14.6354 29.5898 14.3594 30.7356 14.3594C30.871 14.3594 30.9804 14.3646 31.0637 14.375C31.1575 14.375 31.2565 14.3802 31.3606 14.3906V15.75C31.2773 15.7396 31.1679 15.7292 31.0325 15.7188C30.9075 15.6979 30.7512 15.6875 30.5637 15.6875C29.2304 15.6875 28.1158 16.125 27.22 17C26.3346 17.875 25.8919 19.0521 25.8919 20.5312V31H24.5169ZM38.9081 31.2969C37.4185 31.2969 36.1165 30.9271 35.0019 30.1875C33.8977 29.4479 33.0383 28.4375 32.4237 27.1562C31.8196 25.875 31.5175 24.4115 31.5175 22.7656C31.5175 21.1094 31.83 19.6406 32.455 18.3594C33.08 17.0677 33.9394 16.0521 35.0331 15.3125C36.1373 14.5729 37.4081 14.2031 38.8456 14.2031C40.2935 14.2031 41.5592 14.5677 42.6425 15.2969C43.7362 16.0156 44.5852 17 45.1894 18.25C45.7935 19.5 46.0956 20.9219 46.0956 22.5156V23H32.8769C32.8873 24.375 33.1425 25.5885 33.6425 26.6406C34.1529 27.6927 34.856 28.5208 35.7519 29.125C36.6581 29.7188 37.7102 30.0156 38.9081 30.0156C40.231 30.0156 41.3977 29.6562 42.4081 28.9375C43.429 28.2188 44.1008 27.2604 44.4237 26.0625H45.8144C45.5748 27.1146 45.1217 28.0312 44.455 28.8125C43.7883 29.5938 42.9758 30.2031 42.0175 30.6406C41.0592 31.0781 40.0227 31.2969 38.9081 31.2969ZM32.8925 21.7656H44.7206C44.6685 20.526 44.3821 19.4375 43.8612 18.5C43.3508 17.5521 42.6633 16.8125 41.7987 16.2812C40.9342 15.75 39.9498 15.4844 38.8456 15.4844C37.7415 15.4844 36.7571 15.75 35.8925 16.2812C35.0279 16.8021 34.3352 17.5365 33.8144 18.4844C33.2935 19.4219 32.9862 20.5156 32.8925 21.7656ZM49.8931 20.6094V31H48.5181V14.5H49.8619V17.3906C50.3931 16.3281 51.1379 15.5365 52.0962 15.0156C53.065 14.4948 54.1327 14.2344 55.2994 14.2344C56.466 14.2344 57.5077 14.4844 58.4244 14.9844C59.341 15.474 60.0598 16.1823 60.5806 17.1094C61.1119 18.026 61.3775 19.1302 61.3775 20.4219V31H60.0181V20.4844C60.0181 18.9427 59.5702 17.7292 58.6744 16.8438C57.7785 15.9583 56.5962 15.5156 55.1275 15.5156C54.1379 15.5156 53.2473 15.724 52.4556 16.1406C51.664 16.5469 51.039 17.1302 50.5806 17.8906C50.1223 18.651 49.8931 19.5573 49.8931 20.6094ZM71.2531 31.2969C69.7635 31.2969 68.4615 30.9271 67.3469 30.1875C66.2427 29.4479 65.3833 28.4375 64.7687 27.1562C64.1646 25.875 63.8625 24.4115 63.8625 22.7656C63.8625 21.1094 64.175 19.6406 64.8 18.3594C65.425 17.0677 66.2844 16.0521 67.3781 15.3125C68.4823 14.5729 69.7531 14.2031 71.1906 14.2031C72.6385 14.2031 73.9042 14.5677 74.9875 15.2969C76.0812 16.0156 76.9302 17 77.5344 18.25C78.1385 19.5 78.4406 20.9219 78.4406 22.5156V23H65.2219C65.2323 24.375 65.4875 25.5885 65.9875 26.6406C66.4979 27.6927 67.201 28.5208 68.0969 29.125C69.0031 29.7188 70.0552 30.0156 71.2531 30.0156C72.576 30.0156 73.7427 29.6562 74.7531 28.9375C75.774 28.2188 76.4458 27.2604 76.7687 26.0625H78.1594C77.9198 27.1146 77.4667 28.0312 76.8 28.8125C76.1333 29.5938 75.3208 30.2031 74.3625 30.6406C73.4042 31.0781 72.3677 31.2969 71.2531 31.2969ZM65.2375 21.7656H77.0656C77.0135 20.526 76.7271 19.4375 76.2062 18.5C75.6958 17.5521 75.0083 16.8125 74.1437 16.2812C73.2792 15.75 72.2948 15.4844 71.1906 15.4844C70.0865 15.4844 69.1021 15.75 68.2375 16.2812C67.3729 16.8021 66.6802 17.5365 66.1594 18.4844C65.6385 19.4219 65.3312 20.5156 65.2375 21.7656Z"/>
</mask>
<path d="M9.14062 31.3594C7.60938 31.3594 6.27083 31.0885 5.125 30.5469C3.97917 30.0052 3.07812 29.25 2.42188 28.2812C1.77604 27.3021 1.43229 26.1615 1.39062 24.8594H2.82812C2.90104 26.4219 3.49479 27.6719 4.60938 28.6094C5.73438 29.5469 7.24479 30.0156 9.14062 30.0156C11.0469 30.0156 12.5781 29.5521 13.7344 28.625C14.901 27.6979 15.4844 26.4792 15.4844 24.9688C15.4844 23.8125 15.0885 22.8646 14.2969 22.125C13.5156 21.375 12.2188 20.7344 10.4062 20.2031L7.78125 19.4531C5.77083 18.8698 4.28646 18.1042 3.32812 17.1562C2.36979 16.1979 1.89062 15.0052 1.89062 13.5781C1.89062 12.3698 2.20312 11.3021 2.82812 10.375C3.45312 9.4375 4.3125 8.70312 5.40625 8.17188C6.5 7.63021 7.75521 7.35938 9.17188 7.35938C10.599 7.35938 11.849 7.63542 12.9219 8.1875C13.9948 8.73958 14.8385 9.50521 15.4531 10.4844C16.0677 11.4635 16.4062 12.599 16.4688 13.8906H15.0625C14.9583 12.349 14.375 11.099 13.3125 10.1406C12.2604 9.18229 10.8698 8.70312 9.14062 8.70312C8.01562 8.70312 7.01042 8.91146 6.125 9.32812C5.25 9.74479 4.55729 10.3177 4.04688 11.0469C3.54688 11.7656 3.29688 12.5938 3.29688 13.5312C3.29688 14.625 3.68229 15.5417 4.45312 16.2812C5.23438 17.0208 6.45833 17.6302 8.125 18.1094L10.7812 18.8594C12.875 19.4635 14.4167 20.2552 15.4062 21.2344C16.3958 22.2031 16.8906 23.4323 16.8906 24.9219C16.8906 26.1823 16.5677 27.2969 15.9219 28.2656C15.276 29.2344 14.3698 29.9948 13.2031 30.5469C12.0469 31.0885 10.6927 31.3594 9.14062 31.3594ZM19.6881 31V14.5H21.0631V31H19.6881ZM20.3756 10.5625C20.0735 10.5625 19.8131 10.4583 19.5944 10.25C19.386 10.0312 19.2819 9.77083 19.2819 9.46875C19.2819 9.16667 19.386 8.91146 19.5944 8.70312C19.8131 8.48438 20.0735 8.375 20.3756 8.375C20.6777 8.375 20.9329 8.48438 21.1413 8.70312C21.36 8.91146 21.4694 9.16667 21.4694 9.46875C21.4694 9.77083 21.36 10.0312 21.1413 10.25C20.9329 10.4583 20.6777 10.5625 20.3756 10.5625ZM24.5169 31V14.5H25.845V17.4219H25.8762C26.2512 16.4844 26.8658 15.7396 27.72 15.1875C28.5846 14.6354 29.5898 14.3594 30.7356 14.3594C30.871 14.3594 30.9804 14.3646 31.0637 14.375C31.1575 14.375 31.2565 14.3802 31.3606 14.3906V15.75C31.2773 15.7396 31.1679 15.7292 31.0325 15.7188C30.9075 15.6979 30.7512 15.6875 30.5637 15.6875C29.2304 15.6875 28.1158 16.125 27.22 17C26.3346 17.875 25.8919 19.0521 25.8919 20.5312V31H24.5169ZM38.9081 31.2969C37.4185 31.2969 36.1165 30.9271 35.0019 30.1875C33.8977 29.4479 33.0383 28.4375 32.4237 27.1562C31.8196 25.875 31.5175 24.4115 31.5175 22.7656C31.5175 21.1094 31.83 19.6406 32.455 18.3594C33.08 17.0677 33.9394 16.0521 35.0331 15.3125C36.1373 14.5729 37.4081 14.2031 38.8456 14.2031C40.2935 14.2031 41.5592 14.5677 42.6425 15.2969C43.7362 16.0156 44.5852 17 45.1894 18.25C45.7935 19.5 46.0956 20.9219 46.0956 22.5156V23H32.8769C32.8873 24.375 33.1425 25.5885 33.6425 26.6406C34.1529 27.6927 34.856 28.5208 35.7519 29.125C36.6581 29.7188 37.7102 30.0156 38.9081 30.0156C40.231 30.0156 41.3977 29.6562 42.4081 28.9375C43.429 28.2188 44.1008 27.2604 44.4237 26.0625H45.8144C45.5748 27.1146 45.1217 28.0312 44.455 28.8125C43.7883 29.5938 42.9758 30.2031 42.0175 30.6406C41.0592 31.0781 40.0227 31.2969 38.9081 31.2969ZM32.8925 21.7656H44.7206C44.6685 20.526 44.3821 19.4375 43.8612 18.5C43.3508 17.5521 42.6633 16.8125 41.7987 16.2812C40.9342 15.75 39.9498 15.4844 38.8456 15.4844C37.7415 15.4844 36.7571 15.75 35.8925 16.2812C35.0279 16.8021 34.3352 17.5365 33.8144 18.4844C33.2935 19.4219 32.9862 20.5156 32.8925 21.7656ZM49.8931 20.6094V31H48.5181V14.5H49.8619V17.3906C50.3931 16.3281 51.1379 15.5365 52.0962 15.0156C53.065 14.4948 54.1327 14.2344 55.2994 14.2344C56.466 14.2344 57.5077 14.4844 58.4244 14.9844C59.341 15.474 60.0598 16.1823 60.5806 17.1094C61.1119 18.026 61.3775 19.1302 61.3775 20.4219V31H60.0181V20.4844C60.0181 18.9427 59.5702 17.7292 58.6744 16.8438C57.7785 15.9583 56.5962 15.5156 55.1275 15.5156C54.1379 15.5156 53.2473 15.724 52.4556 16.1406C51.664 16.5469 51.039 17.1302 50.5806 17.8906C50.1223 18.651 49.8931 19.5573 49.8931 20.6094ZM71.2531 31.2969C69.7635 31.2969 68.4615 30.9271 67.3469 30.1875C66.2427 29.4479 65.3833 28.4375 64.7687 27.1562C64.1646 25.875 63.8625 24.4115 63.8625 22.7656C63.8625 21.1094 64.175 19.6406 64.8 18.3594C65.425 17.0677 66.2844 16.0521 67.3781 15.3125C68.4823 14.5729 69.7531 14.2031 71.1906 14.2031C72.6385 14.2031 73.9042 14.5677 74.9875 15.2969C76.0812 16.0156 76.9302 17 77.5344 18.25C78.1385 19.5 78.4406 20.9219 78.4406 22.5156V23H65.2219C65.2323 24.375 65.4875 25.5885 65.9875 26.6406C66.4979 27.6927 67.201 28.5208 68.0969 29.125C69.0031 29.7188 70.0552 30.0156 71.2531 30.0156C72.576 30.0156 73.7427 29.6562 74.7531 28.9375C75.774 28.2188 76.4458 27.2604 76.7687 26.0625H78.1594C77.9198 27.1146 77.4667 28.0312 76.8 28.8125C76.1333 29.5938 75.3208 30.2031 74.3625 30.6406C73.4042 31.0781 72.3677 31.2969 71.2531 31.2969ZM65.2375 21.7656H77.0656C77.0135 20.526 76.7271 19.4375 76.2062 18.5C75.6958 17.5521 75.0083 16.8125 74.1437 16.2812C73.2792 15.75 72.2948 15.4844 71.1906 15.4844C70.0865 15.4844 69.1021 15.75 68.2375 16.2812C67.3729 16.8021 66.6802 17.5365 66.1594 18.4844C65.6385 19.4219 65.3312 20.5156 65.2375 21.7656Z" fill="white"/>
<path d="M2.42188 28.2812L2.27084 28.3809L2.27209 28.3827L2.42188 28.2812ZM1.39062 24.8594V24.6785H1.20383L1.2098 24.8652L1.39062 24.8594ZM2.82812 24.8594L3.00884 24.8509L3.0008 24.6785H2.82812V24.8594ZM4.60938 28.6094L4.49292 28.7478L4.49356 28.7484L4.60938 28.6094ZM13.7344 28.625L13.6218 28.4834L13.6212 28.4839L13.7344 28.625ZM14.2969 22.125L14.1716 22.2555L14.1734 22.2572L14.2969 22.125ZM10.4062 20.2031L10.4571 20.0295L10.456 20.0292L10.4062 20.2031ZM7.78125 19.4531L7.73083 19.6269L7.73155 19.6271L7.78125 19.4531ZM3.32812 17.1562L3.2002 17.2842L3.2009 17.2849L3.32812 17.1562ZM2.82812 10.375L2.97814 10.4761L2.97866 10.4754L2.82812 10.375ZM5.40625 8.17188L5.4853 8.33462L5.48654 8.334L5.40625 8.17188ZM15.4531 10.4844L15.6064 10.3882L15.4531 10.4844ZM16.4688 13.8906V14.0715H16.6586L16.6495 13.8819L16.4688 13.8906ZM15.0625 13.8906L14.882 13.9028L14.8934 14.0715H15.0625V13.8906ZM13.3125 10.1406L13.1907 10.2744L13.1913 10.275L13.3125 10.1406ZM6.125 9.32812L6.04797 9.16443L6.04722 9.16478L6.125 9.32812ZM4.04688 11.0469L3.89866 10.9431L3.89836 10.9436L4.04688 11.0469ZM4.45312 16.2812L4.32787 16.4118L4.32875 16.4126L4.45312 16.2812ZM8.125 18.1094L8.07501 18.2832L8.07584 18.2835L8.125 18.1094ZM10.7812 18.8594L10.8314 18.6855L10.8304 18.6853L10.7812 18.8594ZM15.4062 21.2344L15.279 21.363L15.2797 21.3637L15.4062 21.2344ZM15.9219 28.2656L16.0724 28.366L15.9219 28.2656ZM13.2031 30.5469L13.2799 30.7107L13.2805 30.7104L13.2031 30.5469ZM9.14062 31.3594V31.1785C7.63064 31.1785 6.31947 30.9114 5.20232 30.3833L5.125 30.5469L5.04768 30.7104C6.22219 31.2657 7.58811 31.5403 9.14062 31.5403V31.3594ZM5.125 30.5469L5.20232 30.3833C4.08325 29.8543 3.20825 29.1195 2.57166 28.1798L2.42188 28.2812L2.27209 28.3827C2.948 29.3805 3.87509 30.1561 5.04768 30.7104L5.125 30.5469ZM2.42188 28.2812L2.5729 28.1816C1.94747 27.2334 1.61217 26.1261 1.57145 24.8536L1.39062 24.8594L1.2098 24.8652C1.25242 26.1969 1.60461 27.3708 2.27085 28.3809L2.42188 28.2812ZM1.39062 24.8594V25.0403H2.82812V24.8594V24.6785H1.39062V24.8594ZM2.82812 24.8594L2.64741 24.8678C2.72248 26.4765 3.33663 27.7752 4.49292 28.7478L4.60938 28.6094L4.72583 28.4709C3.65295 27.5685 3.0796 26.3672 3.00884 24.8509L2.82812 24.8594ZM4.60938 28.6094L4.49356 28.7484C5.65963 29.7201 7.21515 30.1965 9.14062 30.1965V30.0156V29.8347C7.27444 29.8347 5.80912 29.3737 4.72519 28.4704L4.60938 28.6094ZM9.14062 30.0156V30.1965C11.0761 30.1965 12.651 29.7256 13.8475 28.7661L13.7344 28.625L13.6212 28.4839C12.5053 29.3786 11.0177 29.8347 9.14062 29.8347V30.0156ZM13.7344 28.625L13.8469 28.7666C15.0575 27.8047 15.6653 26.5335 15.6653 24.9688H15.4844H15.3035C15.3035 26.4249 14.7446 27.5911 13.6218 28.4834L13.7344 28.625ZM15.4844 24.9688H15.6653C15.6653 23.7662 15.2513 22.7691 14.4204 21.9928L14.2969 22.125L14.1734 22.2572C14.9257 22.9601 15.3035 23.8588 15.3035 24.9688H15.4844ZM14.2969 22.125L14.4222 21.9945C13.6097 21.2145 12.2796 20.5637 10.4571 20.0295L10.4062 20.2031L10.3554 20.3767C12.1579 20.9051 13.4216 21.5355 14.1716 22.2555L14.2969 22.125ZM10.4062 20.2031L10.456 20.0292L7.83095 19.2792L7.78125 19.4531L7.73155 19.6271L10.3565 20.3771L10.4062 20.2031ZM7.78125 19.4531L7.83166 19.2794C5.83566 18.7002 4.38357 17.9458 3.45535 17.0276L3.32812 17.1562L3.2009 17.2849C4.18934 18.2626 5.70601 19.0394 7.73084 19.6269L7.78125 19.4531ZM3.32812 17.1562L3.45605 17.0283C2.53359 16.1059 2.07154 14.9601 2.07154 13.5781H1.89062H1.70971C1.70971 15.0504 2.20599 16.29 3.2002 17.2842L3.32812 17.1562ZM1.89062 13.5781H2.07154C2.07154 12.4028 2.37492 11.3709 2.97814 10.4761L2.82812 10.375L2.67811 10.2739C2.03133 11.2333 1.70971 12.3368 1.70971 13.5781H1.89062ZM2.82812 10.375L2.97866 10.4754C3.58439 9.56675 4.41813 8.85295 5.48529 8.33461L5.40625 8.17188L5.32721 8.00914C4.20687 8.5533 3.32186 9.30825 2.67759 10.2746L2.82812 10.375ZM5.40625 8.17188L5.48654 8.334C6.55161 7.80654 7.77859 7.54029 9.17188 7.54029V7.35938V7.17846C7.73183 7.17846 6.44839 7.45388 5.32596 8.00975L5.40625 8.17188ZM9.17188 7.35938V7.54029C10.5754 7.54029 11.7961 7.81167 12.8391 8.34837L12.9219 8.1875L13.0047 8.02663C11.9018 7.45917 10.6225 7.17846 9.17188 7.17846V7.35938ZM12.9219 8.1875L12.8391 8.34837C13.8845 8.88628 14.7033 9.63011 15.2999 10.5806L15.4531 10.4844L15.6064 10.3882C14.9737 9.38031 14.1051 8.59289 13.0047 8.02663L12.9219 8.1875ZM15.4531 10.4844L15.2999 10.5806C15.8961 11.5304 16.2269 12.635 16.288 13.8994L16.4688 13.8906L16.6495 13.8819C16.5856 12.5629 16.2393 11.3967 15.6064 10.3882L15.4531 10.4844ZM16.4688 13.8906V13.7097H15.0625V13.8906V14.0715H16.4688V13.8906ZM15.0625 13.8906L15.243 13.8784C15.1359 12.294 14.534 10.9987 13.4337 10.0063L13.3125 10.1406L13.1913 10.275C14.216 11.1992 14.7807 12.4039 14.882 13.9028L15.0625 13.8906ZM13.3125 10.1406L13.4343 10.0069C12.3421 9.01197 10.9047 8.52221 9.14062 8.52221V8.70312V8.88404C10.8349 8.88404 12.1787 9.35261 13.1907 10.2744L13.3125 10.1406ZM9.14062 8.70312V8.52221C7.99297 8.52221 6.96084 8.73484 6.04797 9.16443L6.125 9.32812L6.20203 9.49182C7.05999 9.08807 8.03828 8.88404 9.14062 8.88404V8.70312ZM6.125 9.32812L6.04722 9.16478C5.14657 9.59367 4.42858 10.1861 3.89866 10.9431L4.04688 11.0469L4.19509 11.1506C4.686 10.4493 5.35343 9.89592 6.20278 9.49147L6.125 9.32812ZM4.04688 11.0469L3.89836 10.9436C3.37575 11.6948 3.11596 12.5596 3.11596 13.5312H3.29688H3.47779C3.47779 12.6279 3.718 11.8364 4.19539 11.1502L4.04688 11.0469ZM3.29688 13.5312H3.11596C3.11596 14.673 3.52053 15.6372 4.32787 16.4118L4.45312 16.2812L4.57838 16.1507C3.84405 15.4461 3.47779 14.577 3.47779 13.5312H3.29688ZM4.45312 16.2812L4.32875 16.4126C5.14011 17.1807 6.3957 17.8004 8.07501 18.2832L8.125 18.1094L8.17499 17.9355C6.52097 17.46 5.32864 16.8609 4.5775 16.1499L4.45312 16.2812ZM8.125 18.1094L8.07584 18.2835L10.7321 19.0335L10.7812 18.8594L10.8304 18.6853L8.17416 17.9353L8.125 18.1094ZM10.7812 18.8594L10.7311 19.0332C12.8107 19.6333 14.3198 20.4138 15.279 21.363L15.4062 21.2344L15.5335 21.1058C14.5136 20.0966 12.9393 19.2938 10.8314 18.6856L10.7812 18.8594ZM15.4062 21.2344L15.2797 21.3637C16.2317 22.2956 16.7097 23.4769 16.7097 24.9219H16.8906H17.0715C17.0715 23.3877 16.56 22.1106 15.5328 21.1051L15.4062 21.2344ZM16.8906 24.9219H16.7097C16.7097 26.1497 16.3957 27.2287 15.7713 28.1653L15.9219 28.2656L16.0724 28.366C16.7397 27.365 17.0715 26.2149 17.0715 24.9219H16.8906ZM15.9219 28.2656L15.7713 28.1653C15.1456 29.1038 14.2661 29.8437 13.1257 30.3833L13.2031 30.5469L13.2805 30.7104C14.4735 30.1459 15.4064 29.3649 16.0724 28.366L15.9219 28.2656ZM13.2031 30.5469L13.1264 30.383C11.9988 30.9113 10.6718 31.1785 9.14062 31.1785V31.3594V31.5403C10.7136 31.5403 12.095 31.2658 13.2799 30.7107L13.2031 30.5469ZM19.6881 31H19.5072V31.1809H19.6881V31ZM19.6881 14.5V14.3191H19.5072V14.5H19.6881ZM21.0631 14.5H21.244V14.3191H21.0631V14.5ZM21.0631 31V31.1809H21.244V31H21.0631ZM19.5944 10.25L19.4632 10.3749L19.4696 10.381L19.5944 10.25ZM19.5944 8.70312L19.7223 8.83105L19.5944 8.70312ZM21.1413 8.70312L21.0101 8.82804L21.0165 8.83413L21.1413 8.70312ZM21.1413 10.25L21.2692 10.3779L21.1413 10.25ZM19.6881 31H19.869V14.5H19.6881H19.5072V31H19.6881ZM19.6881 14.5V14.6809H21.0631V14.5V14.3191H19.6881V14.5ZM21.0631 14.5H20.8822V31H21.0631H21.244V14.5H21.0631ZM21.0631 31V30.8191H19.6881V31V31.1809H21.0631V31ZM20.3756 10.5625V10.3816C20.12 10.3816 19.9043 10.2953 19.7191 10.119L19.5944 10.25L19.4696 10.381C19.722 10.6214 20.0271 10.7434 20.3756 10.7434V10.5625ZM19.5944 10.25L19.7254 10.1252C19.5491 9.94012 19.4628 9.72438 19.4628 9.46875H19.2819H19.101C19.101 9.81729 19.223 10.1224 19.4634 10.3748L19.5944 10.25ZM19.2819 9.46875H19.4628C19.4628 9.21329 19.5488 9.00451 19.7223 8.83105L19.5944 8.70312L19.4664 8.5752C19.2232 8.81841 19.101 9.12004 19.101 9.46875H19.2819ZM19.5944 8.70312L19.7223 8.83105C19.908 8.64532 20.1228 8.55592 20.3756 8.55592V8.375V8.19408C20.0243 8.19408 19.7182 8.32343 19.4664 8.5752L19.5944 8.70312ZM20.3756 8.375V8.55592C20.6282 8.55592 20.8361 8.645 21.0102 8.82789L21.1413 8.70312L21.2723 8.57836C21.0298 8.32375 20.7272 8.19408 20.3756 8.19408V8.375ZM21.1413 8.70312L21.0165 8.83413C21.1994 9.00832 21.2885 9.21618 21.2885 9.46875H21.4694H21.6503C21.6503 9.11715 21.5206 8.8146 21.266 8.57212L21.1413 8.70312ZM21.4694 9.46875H21.2885C21.2885 9.72157 21.1991 9.93634 21.0133 10.1221L21.1413 10.25L21.2692 10.3779C21.5209 10.1262 21.6503 9.82009 21.6503 9.46875H21.4694ZM21.1413 10.25L21.0133 10.1221C20.8399 10.2955 20.6311 10.3816 20.3756 10.3816V10.5625V10.7434C20.7243 10.7434 21.026 10.6211 21.2692 10.3779L21.1413 10.25ZM24.5169 31H24.336V31.1809H24.5169V31ZM24.5169 14.5V14.3191H24.336V14.5H24.5169ZM25.845 14.5H26.0259V14.3191H25.845V14.5ZM25.845 17.4219H25.6641V17.6028H25.845V17.4219ZM25.8762 17.4219V17.6028H25.9987L26.0442 17.4891L25.8762 17.4219ZM27.72 15.1875L27.6226 15.035L27.6218 15.0356L27.72 15.1875ZM31.0637 14.375L31.0413 14.5545L31.0525 14.5559H31.0637V14.375ZM31.3606 14.3906H31.5415V14.2269L31.3786 14.2106L31.3606 14.3906ZM31.3606 15.75L31.3382 15.9295L31.5415 15.9549V15.75H31.3606ZM31.0325 15.7188L31.0028 15.8972L31.0106 15.8985L31.0186 15.8991L31.0325 15.7188ZM27.22 17L27.0936 16.8706L27.0928 16.8713L27.22 17ZM25.8919 31V31.1809H26.0728V31H25.8919ZM24.5169 31H24.6978V14.5H24.5169H24.336V31H24.5169ZM24.5169 14.5V14.6809H25.845V14.5V14.3191H24.5169V14.5ZM25.845 14.5H25.6641V17.4219H25.845H26.0259V14.5H25.845ZM25.845 17.4219V17.6028H25.8762V17.4219V17.241H25.845V17.4219ZM25.8762 17.4219L26.0442 17.4891C26.4052 16.5866 26.9953 15.8713 27.8182 15.3394L27.72 15.1875L27.6218 15.0356C26.7364 15.6078 26.0973 16.3821 25.7083 17.3547L25.8762 17.4219ZM27.72 15.1875L27.8174 15.34C28.6495 14.8086 29.6201 14.5403 30.7356 14.5403V14.3594V14.1785C29.5595 14.1785 28.5196 14.4622 27.6226 15.035L27.72 15.1875ZM30.7356 14.3594V14.5403C30.8675 14.5403 30.9685 14.5454 31.0413 14.5545L31.0637 14.375L31.0862 14.1955C30.9923 14.1837 30.8746 14.1785 30.7356 14.1785V14.3594ZM31.0637 14.375V14.5559C31.1508 14.5559 31.2438 14.5608 31.3426 14.5706L31.3606 14.3906L31.3786 14.2106C31.2692 14.1997 31.1642 14.1941 31.0637 14.1941V14.375ZM31.3606 14.3906H31.1797V15.75H31.3606H31.5415V14.3906H31.3606ZM31.3606 15.75L31.3831 15.5705C31.2957 15.5596 31.1831 15.5489 31.0464 15.5384L31.0325 15.7188L31.0186 15.8991C31.1527 15.9094 31.2589 15.9196 31.3382 15.9295L31.3606 15.75ZM31.0325 15.7188L31.0622 15.5403C30.924 15.5172 30.757 15.5066 30.5637 15.5066V15.6875V15.8684C30.7455 15.8684 30.891 15.8786 31.0028 15.8972L31.0325 15.7188ZM30.5637 15.6875V15.5066C29.1866 15.5066 28.0256 15.9603 27.0936 16.8706L27.22 17L27.3464 17.1294C28.2061 16.2897 29.2743 15.8684 30.5637 15.8684V15.6875ZM27.22 17L27.0928 16.8713C26.1666 17.7866 25.711 19.0135 25.711 20.5312H25.8919H26.0728C26.0728 19.0906 26.5025 17.9634 27.3472 17.1287L27.22 17ZM25.8919 20.5312H25.711V31H25.8919H26.0728V20.5312H25.8919ZM25.8919 31V30.8191H24.5169V31V31.1809H25.8919V31ZM35.0019 30.1875L34.9012 30.3378L34.9018 30.3382L35.0019 30.1875ZM32.4238 27.1562L32.2601 27.2334L32.2606 27.2345L32.4238 27.1562ZM32.455 18.3594L32.6176 18.4387L32.6179 18.4382L32.455 18.3594ZM35.0331 15.3125L34.9324 15.1622L34.9318 15.1626L35.0331 15.3125ZM42.6425 15.2969L42.5415 15.447L42.5431 15.4481L42.6425 15.2969ZM46.0956 23V23.1809H46.2765V23H46.0956ZM32.8769 23V22.8191H32.6946L32.696 23.0014L32.8769 23ZM33.6425 26.6406L33.4791 26.7183L33.4797 26.7196L33.6425 26.6406ZM35.7519 29.125L35.6507 29.275L35.6527 29.2763L35.7519 29.125ZM42.4081 28.9375L42.304 28.7896L42.3033 28.7901L42.4081 28.9375ZM44.4238 26.0625V25.8816H44.2851L44.2491 26.0154L44.4238 26.0625ZM45.8144 26.0625L45.9908 26.1027L46.0411 25.8816H45.8144V26.0625ZM32.8925 21.7656L32.7121 21.7521L32.6975 21.9465H32.8925V21.7656ZM44.7206 21.7656V21.9465H44.9093L44.9014 21.758L44.7206 21.7656ZM43.8613 18.5L43.7019 18.5858L43.7031 18.5879L43.8613 18.5ZM35.8925 16.2812L35.9859 16.4362L35.9872 16.4354L35.8925 16.2812ZM33.8144 18.4844L33.9725 18.5722L33.9729 18.5715L33.8144 18.4844ZM38.9081 31.2969V31.116C37.4499 31.116 36.1835 30.7545 35.1019 30.0368L35.0019 30.1875L34.9018 30.3382C36.0494 31.0997 37.3871 31.4778 38.9081 31.4778V31.2969ZM35.0019 30.1875L35.1026 30.0372C34.0271 29.3169 33.1885 28.3322 32.5869 27.078L32.4238 27.1562L32.2606 27.2345C32.8882 28.5428 33.7683 29.579 34.9012 30.3378L35.0019 30.1875ZM32.4238 27.1562L32.5874 27.0791C31.9963 25.8256 31.6984 24.3891 31.6984 22.7656H31.5175H31.3366C31.3366 24.4338 31.6429 25.9244 32.2601 27.2334L32.4238 27.1562ZM31.5175 22.7656H31.6984C31.6984 21.1324 32.0065 19.6915 32.6176 18.4387L32.455 18.3594L32.2924 18.2801C31.6535 19.5897 31.3366 21.0863 31.3366 22.7656H31.5175ZM32.455 18.3594L32.6179 18.4382C33.2302 17.1726 34.0694 16.1826 35.1345 15.4624L35.0331 15.3125L34.9318 15.1626C33.8094 15.9216 32.9298 16.9628 32.2921 18.2806L32.455 18.3594ZM35.0331 15.3125L35.1338 15.4628C36.2057 14.7448 37.4409 14.384 38.8456 14.384V14.2031V14.0222C37.3753 14.0222 36.0688 14.401 34.9324 15.1622L35.0331 15.3125ZM38.8456 14.2031V14.384C40.2616 14.384 41.4912 14.74 42.5415 15.447L42.6425 15.2969L42.7435 15.1468C41.6271 14.3954 40.3255 14.0222 38.8456 14.0222V14.2031ZM42.6425 15.2969L42.5431 15.4481C43.6079 16.1477 44.4357 17.1063 45.0265 18.3287L45.1894 18.25L45.3523 18.1713C44.7348 16.8937 43.8646 15.8835 42.7419 15.1457L42.6425 15.2969ZM45.1894 18.25L45.0265 18.3287C45.6171 19.5508 45.9147 20.9451 45.9147 22.5156H46.0956H46.2765C46.2765 20.8986 45.9699 19.4492 45.3523 18.1713L45.1894 18.25ZM46.0956 22.5156H45.9147V23H46.0956H46.2765V22.5156H46.0956ZM46.0956 23V22.8191H32.8769V23V23.1809H46.0956V23ZM32.8769 23L32.696 23.0014C32.7065 24.3981 32.9659 25.6384 33.4791 26.7183L33.6425 26.6406L33.8059 26.563C33.3191 25.5387 33.068 24.3519 33.0578 22.9986L32.8769 23ZM33.6425 26.6406L33.4797 26.7196C34.0029 27.7979 34.7263 28.6515 35.6507 29.275L35.7519 29.125L35.853 28.975C34.9858 28.3901 34.303 27.5875 33.8053 26.5617L33.6425 26.6406ZM35.7519 29.125L35.6527 29.2763C36.5915 29.8914 37.6788 30.1965 38.9081 30.1965V30.0156V29.8347C37.7416 29.8347 36.7247 29.5461 35.851 28.9737L35.7519 29.125ZM38.9081 30.0156V30.1965C40.266 30.1965 41.4698 29.827 42.513 29.0849L42.4081 28.9375L42.3033 28.7901C41.3256 29.4855 40.1961 29.8347 38.9081 29.8347V30.0156ZM42.4081 28.9375L42.5123 29.0854C43.5674 28.3425 44.2644 27.3486 44.5984 26.1096L44.4238 26.0625L44.2491 26.0154C43.9372 27.1722 43.2905 28.095 42.304 28.7896L42.4081 28.9375ZM44.4238 26.0625V26.2434H45.8144V26.0625V25.8816H44.4238V26.0625ZM45.8144 26.0625L45.638 26.0223C45.4045 27.0474 44.9641 27.9372 44.3174 28.6951L44.455 28.8125L44.5926 28.9299C45.2792 28.1253 45.745 27.1818 45.9908 26.1027L45.8144 26.0625ZM44.455 28.8125L44.3174 28.6951C43.6683 29.4557 42.8773 30.0492 41.9424 30.476L42.0175 30.6406L42.0926 30.8052C43.0743 30.357 43.9084 29.7318 44.5926 28.9299L44.455 28.8125ZM42.0175 30.6406L41.9424 30.476C41.009 30.9022 39.9983 31.116 38.9081 31.116V31.2969V31.4778C40.0471 31.4778 41.1094 31.2541 42.0926 30.8052L42.0175 30.6406ZM32.8925 21.7656V21.9465H44.7206V21.7656V21.5847H32.8925V21.7656ZM44.7206 21.7656L44.9014 21.758C44.8483 20.4947 44.5559 19.3779 44.0194 18.4121L43.8613 18.5L43.7031 18.5879C44.2083 19.4971 44.4888 20.5574 44.5399 21.7732L44.7206 21.7656ZM43.8613 18.5L44.0205 18.4142C43.496 17.44 42.7869 16.6761 41.8935 16.1271L41.7988 16.2812L41.704 16.4354C42.5398 16.9489 43.2057 17.6642 43.702 18.5858L43.8613 18.5ZM41.7988 16.2812L41.8935 16.1271C40.9979 15.5768 39.9802 15.3035 38.8456 15.3035V15.4844V15.6653C39.9194 15.6653 40.8704 15.9232 41.704 16.4354L41.7988 16.2812ZM38.8456 15.4844V15.3035C37.7111 15.3035 36.6934 15.5768 35.7978 16.1271L35.8925 16.2812L35.9872 16.4354C36.8208 15.9232 37.7718 15.6653 38.8456 15.6653V15.4844ZM35.8925 16.2812L35.7991 16.1263C34.9053 16.6648 34.1909 17.4234 33.6558 18.3973L33.8144 18.4844L33.9729 18.5715C34.4795 17.6495 35.1506 16.9394 35.9859 16.4362L35.8925 16.2812ZM33.8144 18.4844L33.6562 18.3965C33.1207 19.3604 32.8075 20.4804 32.7121 21.7521L32.8925 21.7656L33.0729 21.7792C33.165 20.5509 33.4664 19.4833 33.9725 18.5722L33.8144 18.4844ZM49.8931 31V31.1809H50.074V31H49.8931ZM48.5181 31H48.3372V31.1809H48.5181V31ZM48.5181 14.5V14.3191H48.3372V14.5H48.5181ZM49.8619 14.5H50.0428V14.3191H49.8619V14.5ZM49.8619 17.3906H49.681L50.0237 17.4715L49.8619 17.3906ZM52.0962 15.0156L52.0106 14.8563L52.0099 14.8567L52.0962 15.0156ZM58.4244 14.9844L58.3377 15.1432L58.3391 15.144L58.4244 14.9844ZM60.5806 17.1094L60.4229 17.198L60.4241 17.2001L60.5806 17.1094ZM61.3775 31V31.1809H61.5584V31H61.3775ZM60.0181 31H59.8372V31.1809H60.0181V31ZM52.4556 16.1406L52.5382 16.3016L52.5399 16.3007L52.4556 16.1406ZM49.8931 20.6094H49.7122V31H49.8931H50.074V20.6094H49.8931ZM49.8931 31V30.8191H48.5181V31V31.1809H49.8931V31ZM48.5181 31H48.699V14.5H48.5181H48.3372V31H48.5181ZM48.5181 14.5V14.6809H49.8619V14.5V14.3191H48.5181V14.5ZM49.8619 14.5H49.681V17.3906H49.8619H50.0428V14.5H49.8619ZM49.8619 17.3906L50.0237 17.4715C50.5399 16.4391 51.2598 15.6761 52.1826 15.1746L52.0962 15.0156L52.0099 14.8567C51.0161 15.3968 50.2463 16.2172 49.7001 17.3097L49.8619 17.3906ZM52.0962 15.0156L52.1819 15.175C53.1227 14.6692 54.1607 14.4153 55.2994 14.4153V14.2344V14.0535C54.1047 14.0535 53.0073 14.3204 52.0106 14.8563L52.0962 15.0156ZM55.2994 14.2344V14.4153C56.4394 14.4153 57.4507 14.6593 58.3377 15.1432L58.4244 14.9844L58.511 14.8256C57.5648 14.3094 56.4927 14.0535 55.2994 14.0535V14.2344ZM58.4244 14.9844L58.3391 15.144C59.2246 15.6169 59.9185 16.3003 60.4229 17.198L60.5806 17.1094L60.7384 17.0208C60.201 16.0643 59.4575 15.331 58.5096 14.8248L58.4244 14.9844ZM60.5806 17.1094L60.4241 17.2001C60.9362 18.0837 61.1966 19.1551 61.1966 20.4219H61.3775H61.5584C61.5584 19.1053 61.2875 17.9683 60.7372 17.0187L60.5806 17.1094ZM61.3775 20.4219H61.1966V31H61.3775H61.5584V20.4219H61.3775ZM61.3775 31V30.8191H60.0181V31V31.1809H61.3775V31ZM60.0181 31H60.199V20.4844H60.0181H59.8372V31H60.0181ZM60.0181 20.4844H60.199C60.199 18.9059 59.7392 17.6418 58.8016 16.7151L58.6744 16.8438L58.5472 16.9724C59.4012 17.8165 59.8372 18.9795 59.8372 20.4844H60.0181ZM58.6744 16.8438L58.8016 16.7151C57.8662 15.7906 56.6353 15.3347 55.1275 15.3347V15.5156V15.6965C56.5572 15.6965 57.6908 16.126 58.5472 16.9724L58.6744 16.8438ZM55.1275 15.5156V15.3347C54.1117 15.3347 53.1917 15.5488 52.3714 15.9805L52.4556 16.1406L52.5399 16.3007C53.3029 15.8991 54.1641 15.6965 55.1275 15.6965V15.5156ZM52.4556 16.1406L52.373 15.9797C51.5515 16.4012 50.9014 17.0079 50.4257 17.7972L50.5806 17.8906L50.7356 17.984C51.1765 17.2525 51.7764 16.6925 52.5382 16.3016L52.4556 16.1406ZM50.5806 17.8906L50.4257 17.7972C49.9474 18.5907 49.7122 19.5305 49.7122 20.6094H49.8931H50.074C50.074 19.5841 50.2971 18.7114 50.7356 17.984L50.5806 17.8906ZM67.3469 30.1875L67.2462 30.3378L67.2468 30.3382L67.3469 30.1875ZM64.7688 27.1562L64.6051 27.2334L64.6056 27.2345L64.7688 27.1562ZM64.8 18.3594L64.9626 18.4387L64.9629 18.4382L64.8 18.3594ZM67.3781 15.3125L67.2774 15.1622L67.2768 15.1626L67.3781 15.3125ZM74.9875 15.2969L74.8865 15.447L74.8881 15.4481L74.9875 15.2969ZM78.4406 23V23.1809H78.6215V23H78.4406ZM65.2219 23V22.8191H65.0396L65.041 23.0014L65.2219 23ZM65.9875 26.6406L65.8241 26.7183L65.8247 26.7196L65.9875 26.6406ZM68.0969 29.125L67.9957 29.275L67.9977 29.2763L68.0969 29.125ZM74.7531 28.9375L74.649 28.7896L74.6483 28.7901L74.7531 28.9375ZM76.7688 26.0625V25.8816H76.6301L76.5941 26.0154L76.7688 26.0625ZM78.1594 26.0625L78.3358 26.1027L78.3861 25.8816H78.1594V26.0625ZM65.2375 21.7656L65.0571 21.7521L65.0425 21.9465H65.2375V21.7656ZM77.0656 21.7656V21.9465H77.2543L77.2464 21.758L77.0656 21.7656ZM76.2063 18.5L76.0469 18.5858L76.0481 18.5879L76.2063 18.5ZM68.2375 16.2812L68.3309 16.4362L68.3322 16.4354L68.2375 16.2812ZM66.1594 18.4844L66.3175 18.5722L66.3179 18.5715L66.1594 18.4844ZM71.2531 31.2969V31.116C69.7949 31.116 68.5285 30.7545 67.4469 30.0368L67.3469 30.1875L67.2468 30.3382C68.3944 31.0997 69.7321 31.4778 71.2531 31.4778V31.2969ZM67.3469 30.1875L67.4476 30.0372C66.3721 29.3169 65.5335 28.3322 64.9319 27.078L64.7688 27.1562L64.6056 27.2345C65.2332 28.5428 66.1133 29.579 67.2462 30.3378L67.3469 30.1875ZM64.7688 27.1562L64.9324 27.0791C64.3413 25.8256 64.0434 24.3891 64.0434 22.7656H63.8625H63.6816C63.6816 24.4338 63.9879 25.9244 64.6051 27.2334L64.7688 27.1562ZM63.8625 22.7656H64.0434C64.0434 21.1324 64.3515 19.6915 64.9626 18.4387L64.8 18.3594L64.6374 18.2801C63.9985 19.5897 63.6816 21.0863 63.6816 22.7656H63.8625ZM64.8 18.3594L64.9629 18.4382C65.5752 17.1726 66.4144 16.1826 67.4795 15.4624L67.3781 15.3125L67.2768 15.1626C66.1544 15.9216 65.2748 16.9628 64.6371 18.2806L64.8 18.3594ZM67.3781 15.3125L67.4788 15.4628C68.5507 14.7448 69.7859 14.384 71.1906 14.384V14.2031V14.0222C69.7203 14.0222 68.4138 14.401 67.2774 15.1622L67.3781 15.3125ZM71.1906 14.2031V14.384C72.6066 14.384 73.8362 14.74 74.8865 15.447L74.9875 15.2969L75.0885 15.1468C73.9721 14.3954 72.6705 14.0222 71.1906 14.0222V14.2031ZM74.9875 15.2969L74.8881 15.4481C75.9529 16.1477 76.7807 17.1063 77.3715 18.3287L77.5344 18.25L77.6973 18.1713C77.0798 16.8937 76.2096 15.8835 75.0869 15.1457L74.9875 15.2969ZM77.5344 18.25L77.3715 18.3287C77.9622 19.5508 78.2597 20.9451 78.2597 22.5156H78.4406H78.6215C78.6215 20.8986 78.3149 19.4492 77.6973 18.1713L77.5344 18.25ZM78.4406 22.5156H78.2597V23H78.4406H78.6215V22.5156H78.4406ZM78.4406 23V22.8191H65.2219V23V23.1809H78.4406V23ZM65.2219 23L65.041 23.0014C65.0515 24.3981 65.3109 25.6384 65.8241 26.7183L65.9875 26.6406L66.1509 26.563C65.6641 25.5387 65.413 24.3519 65.4028 22.9986L65.2219 23ZM65.9875 26.6406L65.8247 26.7196C66.3479 27.7979 67.0713 28.6515 67.9957 29.275L68.0969 29.125L68.198 28.975C67.3308 28.3901 66.6479 27.5875 66.1503 26.5617L65.9875 26.6406ZM68.0969 29.125L67.9977 29.2763C68.9365 29.8914 70.0238 30.1965 71.2531 30.1965V30.0156V29.8347C70.0866 29.8347 69.0697 29.5461 68.196 28.9737L68.0969 29.125ZM71.2531 30.0156V30.1965C72.611 30.1965 73.8148 29.827 74.858 29.0849L74.7531 28.9375L74.6483 28.7901C73.6706 29.4855 72.5411 29.8347 71.2531 29.8347V30.0156ZM74.7531 28.9375L74.8573 29.0854C75.9124 28.3425 76.6094 27.3486 76.9434 26.1096L76.7688 26.0625L76.5941 26.0154C76.2822 27.1722 75.6355 28.095 74.649 28.7896L74.7531 28.9375ZM76.7688 26.0625V26.2434H78.1594V26.0625V25.8816H76.7688V26.0625ZM78.1594 26.0625L77.983 26.0223C77.7495 27.0474 77.3091 27.9372 76.6624 28.6951L76.8 28.8125L76.9376 28.9299C77.6242 28.1253 78.09 27.1818 78.3358 26.1027L78.1594 26.0625ZM76.8 28.8125L76.6624 28.6951C76.0133 29.4557 75.2223 30.0492 74.2874 30.476L74.3625 30.6406L74.4376 30.8052C75.4193 30.357 76.2534 29.7318 76.9376 28.9299L76.8 28.8125ZM74.3625 30.6406L74.2874 30.476C73.354 30.9022 72.3433 31.116 71.2531 31.116V31.2969V31.4778C72.3921 31.4778 73.4544 31.2541 74.4376 30.8052L74.3625 30.6406ZM65.2375 21.7656V21.9465H77.0656V21.7656V21.5847H65.2375V21.7656ZM77.0656 21.7656L77.2464 21.758C77.1933 20.4947 76.9009 19.3779 76.3644 18.4121L76.2063 18.5L76.0481 18.5879C76.5533 19.4971 76.8338 20.5574 76.8849 21.7732L77.0656 21.7656ZM76.2063 18.5L76.3655 18.4142C75.841 17.44 75.1319 16.6761 74.2385 16.1271L74.1438 16.2812L74.049 16.4354C74.8848 16.9489 75.5507 17.6642 76.047 18.5858L76.2063 18.5ZM74.1438 16.2812L74.2385 16.1271C73.3429 15.5768 72.3252 15.3035 71.1906 15.3035V15.4844V15.6653C72.2644 15.6653 73.2154 15.9232 74.049 16.4354L74.1438 16.2812ZM71.1906 15.4844V15.3035C70.0561 15.3035 69.0384 15.5768 68.1428 16.1271L68.2375 16.2812L68.3322 16.4354C69.1658 15.9232 70.1168 15.6653 71.1906 15.6653V15.4844ZM68.2375 16.2812L68.1441 16.1263C67.2503 16.6648 66.5359 17.4234 66.0008 18.3973L66.1594 18.4844L66.3179 18.5715C66.8245 17.6495 67.4956 16.9394 68.3309 16.4362L68.2375 16.2812ZM66.1594 18.4844L66.0012 18.3965C65.4657 19.3604 65.1525 20.4804 65.0571 21.7521L65.2375 21.7656L65.4179 21.7792C65.51 20.5509 65.8114 19.4833 66.3175 18.5722L66.1594 18.4844Z" fill="white" mask="url(#path-1-outside-1_47_189201)"/>
</g>
<defs>
<clipPath id="clip0_47_189201">
<rect width="80" height="38" fill="white"/>
</clipPath>
</defs>
</svg>
