<svg width="32" height="32" viewBox="0 0 32 32" fill="none" xmlns="http://www.w3.org/2000/svg">
<g clip-path="url(#clip0_2035_173179)">
<path d="M16.0007 10.56C18.9168 10.56 21.2807 8.19606 21.2807 5.28C21.2807 2.36394 18.9168 0 16.0007 0C13.0846 0 10.7207 2.36394 10.7207 5.28C10.7207 8.19606 13.0846 10.56 16.0007 10.56Z" fill="white"/>
<path d="M21.4502 15.6798C21.4395 15.7972 21.4395 15.9252 21.4395 16.0425C21.4502 17.4292 20.9382 18.7625 19.9568 19.7438L19.7328 19.9678C18.7622 20.9385 17.4395 21.4612 16.0635 21.4505C16.0422 21.4505 16.0102 21.4505 15.9888 21.4505C15.9675 21.4505 15.9355 21.4505 15.9142 21.4505C14.5382 21.4718 13.2155 20.9385 12.2448 19.9678L12.0208 19.7438C11.0395 18.7625 10.5275 17.4292 10.5382 16.0425C10.5382 15.9252 10.5382 15.7972 10.5275 15.6798C10.3782 13.0772 8.30885 10.9545 5.70618 10.7412C2.43151 10.4638 -0.277819 13.1838 -0.0111528 16.4585C0.202181 19.0505 2.33551 21.1198 4.92751 21.2798C5.04485 21.2905 5.17285 21.2905 5.29018 21.2905C6.67685 21.2798 8.01018 21.7918 8.99151 22.7732L9.21551 22.9972C10.1968 23.9785 10.7088 25.3118 10.6982 26.6985C10.6982 26.8798 10.7088 27.0612 10.7195 27.2425C10.9542 29.7918 13.0448 31.8292 15.6048 32.0105C18.6875 32.2238 21.2582 29.7812 21.2582 26.7412C21.2582 26.7198 21.2582 26.6878 21.2582 26.6665C21.2368 25.2905 21.7702 23.9678 22.7408 22.9972L22.9648 22.7732C23.9462 21.7918 25.2795 21.2798 26.6662 21.2905C26.7835 21.2905 26.9008 21.2905 27.0288 21.2798C29.6315 21.1305 31.7542 19.0612 31.9675 16.4585C32.2448 13.1838 29.5248 10.4745 26.2502 10.7412C23.6688 10.9545 21.5995 13.0878 21.4502 15.6798Z" fill="white"/>
</g>
<defs>
<clipPath id="clip0_2035_173179">
<rect width="32" height="32" fill="white"/>
</clipPath>
</defs>
</svg>
