<svg width="28" height="28" viewBox="0 0 28 28" fill="none" xmlns="http://www.w3.org/2000/svg">
<path d="M23.6786 8.6975L17.5536 2.5725C17.4317 2.45046 17.287 2.35364 17.1276 2.28758C16.9683 2.22151 16.7975 2.18751 16.625 2.1875H6.125C5.54484 2.1875 4.98844 2.41797 4.5782 2.8282C4.16797 3.23844 3.9375 3.79484 3.9375 4.375V23.625C3.9375 24.2052 4.16797 24.7616 4.5782 25.1718C4.98844 25.582 5.54484 25.8125 6.125 25.8125H21.875C22.4552 25.8125 23.0116 25.582 23.4218 25.1718C23.832 24.7616 24.0625 24.2052 24.0625 23.625V9.625C24.0625 9.27718 23.9244 8.94358 23.6786 8.6975ZM20.0156 8.75H17.5V6.23438L20.0156 8.75ZM6.5625 23.1875V4.8125H14.875V10.0625C14.875 10.4106 15.0133 10.7444 15.2594 10.9906C15.5056 11.2367 15.8394 11.375 16.1875 11.375H21.4375V23.1875H6.5625ZM17.115 17.8839C17.5147 17.0457 17.6053 16.0932 17.3707 15.1947C17.1362 14.2961 16.5916 13.5094 15.8332 12.9735C15.0748 12.4376 14.1514 12.187 13.2262 12.2659C12.3009 12.3449 11.4333 12.7483 10.7766 13.4049C10.12 14.0616 9.71658 14.9292 9.63764 15.8544C9.55869 16.7797 9.80932 17.7031 10.3452 18.4615C10.8811 19.2199 11.6679 19.7645 12.5664 19.999C13.4649 20.2335 14.4174 20.143 15.2556 19.7433L16.5681 21.0558C16.8147 21.3023 17.1491 21.4409 17.4978 21.4409C17.8465 21.4409 18.1809 21.3023 18.4275 21.0558C18.6741 20.8092 18.8126 20.4748 18.8126 20.1261C18.8126 19.7774 18.6741 19.443 18.4275 19.1964L17.115 17.8839ZM12.25 16.1875C12.25 15.9279 12.327 15.6742 12.4712 15.4583C12.6154 15.2425 12.8204 15.0742 13.0602 14.9749C13.3001 14.8756 13.564 14.8496 13.8186 14.9002C14.0732 14.9509 14.307 15.0759 14.4906 15.2594C14.6741 15.443 14.7991 15.6768 14.8498 15.9314C14.9004 16.186 14.8744 16.4499 14.7751 16.6898C14.6758 16.9296 14.5075 17.1346 14.2917 17.2788C14.0758 17.423 13.8221 17.5 13.5625 17.5C13.2144 17.5 12.8806 17.3617 12.6344 17.1156C12.3883 16.8694 12.25 16.5356 12.25 16.1875Z" fill="white"/>
</svg>
