<svg width="28" height="28" viewBox="0 0 28 28" fill="none" xmlns="http://www.w3.org/2000/svg">
<path d="M24.9375 4.375V8.75C24.9375 9.0981 24.7992 9.43194 24.5531 9.67808C24.3069 9.92422 23.9731 10.0625 23.625 10.0625C23.2769 10.0625 22.9431 9.92422 22.6969 9.67808C22.4508 9.43194 22.3125 9.0981 22.3125 8.75V5.6875H19.25C18.9019 5.6875 18.5681 5.54922 18.3219 5.30308C18.0758 5.05694 17.9375 4.7231 17.9375 4.375C17.9375 4.0269 18.0758 3.69306 18.3219 3.44692C18.5681 3.20078 18.9019 3.0625 19.25 3.0625H23.625C23.9731 3.0625 24.3069 3.20078 24.5531 3.44692C24.7992 3.69306 24.9375 4.0269 24.9375 4.375ZM8.75 22.3125H5.6875V19.25C5.6875 18.9019 5.54922 18.5681 5.30308 18.3219C5.05694 18.0758 4.7231 17.9375 4.375 17.9375C4.0269 17.9375 3.69306 18.0758 3.44692 18.3219C3.20078 18.5681 3.0625 18.9019 3.0625 19.25V23.625C3.0625 23.9731 3.20078 24.3069 3.44692 24.5531C3.69306 24.7992 4.0269 24.9375 4.375 24.9375H8.75C9.0981 24.9375 9.43194 24.7992 9.67808 24.5531C9.92422 24.3069 10.0625 23.9731 10.0625 23.625C10.0625 23.2769 9.92422 22.9431 9.67808 22.6969C9.43194 22.4508 9.0981 22.3125 8.75 22.3125ZM23.625 17.9375C23.2769 17.9375 22.9431 18.0758 22.6969 18.3219C22.4508 18.5681 22.3125 18.9019 22.3125 19.25V22.3125H19.25C18.9019 22.3125 18.5681 22.4508 18.3219 22.6969C18.0758 22.9431 17.9375 23.2769 17.9375 23.625C17.9375 23.9731 18.0758 24.3069 18.3219 24.5531C18.5681 24.7992 18.9019 24.9375 19.25 24.9375H23.625C23.9731 24.9375 24.3069 24.7992 24.5531 24.5531C24.7992 24.3069 24.9375 23.9731 24.9375 23.625V19.25C24.9375 18.9019 24.7992 18.5681 24.5531 18.3219C24.3069 18.0758 23.9731 17.9375 23.625 17.9375ZM4.375 10.0625C4.7231 10.0625 5.05694 9.92422 5.30308 9.67808C5.54922 9.43194 5.6875 9.0981 5.6875 8.75V5.6875H8.75C9.0981 5.6875 9.43194 5.54922 9.67808 5.30308C9.92422 5.05694 10.0625 4.7231 10.0625 4.375C10.0625 4.0269 9.92422 3.69306 9.67808 3.44692C9.43194 3.20078 9.0981 3.0625 8.75 3.0625H4.375C4.0269 3.0625 3.69306 3.20078 3.44692 3.44692C3.20078 3.69306 3.0625 4.0269 3.0625 4.375V8.75C3.0625 9.0981 3.20078 9.43194 3.44692 9.67808C3.69306 9.92422 4.0269 10.0625 4.375 10.0625ZM9.1875 7.875H18.8125C19.1606 7.875 19.4944 8.01328 19.7406 8.25942C19.9867 8.50556 20.125 8.8394 20.125 9.1875V18.8125C20.125 19.1606 19.9867 19.4944 19.7406 19.7406C19.4944 19.9867 19.1606 20.125 18.8125 20.125H9.1875C8.8394 20.125 8.50556 19.9867 8.25942 19.7406C8.01328 19.4944 7.875 19.1606 7.875 18.8125V9.1875C7.875 8.8394 8.01328 8.50556 8.25942 8.25942C8.50556 8.01328 8.8394 7.875 9.1875 7.875ZM10.5 17.5H17.5V10.5H10.5V17.5Z" fill="white"/>
</svg>
