<svg width="28" height="28" viewBox="0 0 28 28" fill="none" xmlns="http://www.w3.org/2000/svg">
<path d="M17.0622 24.9367C17.0622 25.2848 16.9239 25.6186 16.6778 25.8648C16.4317 26.1109 16.0978 26.2492 15.7497 26.2492H12.2497C11.9016 26.2492 11.5678 26.1109 11.3216 25.8648C11.0755 25.6186 10.9372 25.2848 10.9372 24.9367C10.9372 24.5886 11.0755 24.2548 11.3216 24.0086C11.5678 23.7625 11.9016 23.6242 12.2497 23.6242H15.7497C16.0978 23.6242 16.4317 23.7625 16.6778 24.0086C16.9239 24.2548 17.0622 24.5886 17.0622 24.9367ZM13.9997 12.6867C14.3458 12.6867 14.6842 12.5841 14.972 12.3918C15.2598 12.1995 15.4841 11.9262 15.6165 11.6064C15.749 11.2866 15.7836 10.9348 15.7161 10.5953C15.6486 10.2558 15.4819 9.94401 15.2372 9.69927C14.9924 9.45453 14.6806 9.28785 14.3411 9.22033C14.0017 9.15281 13.6498 9.18746 13.33 9.31992C13.0103 9.45237 12.7369 9.67667 12.5447 9.96446C12.3524 10.2522 12.2497 10.5906 12.2497 10.9367C12.2497 11.4008 12.4341 11.846 12.7623 12.1741C13.0905 12.5023 13.5356 12.6867 13.9997 12.6867ZM24.8858 17.1383L23.5339 23.2228C23.4544 23.586 23.2832 23.9227 23.0366 24.2009C22.7899 24.4791 22.4762 24.6895 22.1252 24.812C21.8901 24.8946 21.6427 24.9368 21.3935 24.9367C20.9057 24.9363 20.4322 24.7718 20.0493 24.4697L17.1902 22.3117H10.8093L7.9502 24.4708C7.56709 24.7725 7.09364 24.9366 6.60598 24.9367C6.35671 24.9364 6.1093 24.8939 5.87426 24.8109C5.52327 24.6884 5.20951 24.478 4.9629 24.1998C4.71629 23.9216 4.54505 23.5849 4.46551 23.2217L3.11363 17.1383C3.04196 16.8118 3.04568 16.4732 3.12452 16.1484C3.20337 15.8235 3.35526 15.5209 3.56863 15.2636L6.61254 11.6105C6.72899 10.2417 7.04782 8.89782 7.55863 7.62264C9.01004 3.98592 11.6055 1.70545 12.6599 0.893892C13.0433 0.596781 13.5146 0.435547 13.9997 0.435547C14.4848 0.435547 14.9561 0.596781 15.3396 0.893892C16.3896 1.70545 18.9894 3.98592 20.4408 7.62264C20.9516 8.89782 21.2705 10.2417 21.3869 11.6105L24.4308 15.2636C24.6442 15.5209 24.7961 15.8235 24.8749 16.1484C24.9538 16.4732 24.9575 16.8118 24.8858 17.1383ZM11.133 19.6867H16.8664C19.0004 15.782 19.3821 12.0545 18.0029 8.59608C16.8872 5.79608 14.8966 3.92577 13.9997 3.1842C13.1029 3.92577 11.1122 5.79608 9.9966 8.59608C8.61629 12.0545 8.9991 15.782 11.133 19.6867ZM8.6666 20.6405C7.79393 19.0185 7.17008 17.2745 6.81598 15.467L5.72223 16.7795L6.87941 21.9901L8.6666 20.6405ZM22.2761 16.7784L21.1824 15.4659C20.8283 17.2734 20.2044 19.0174 19.3318 20.6394L21.1179 21.988L22.2761 16.7784Z" fill="white"/>
</svg>
