<svg width="28" height="28" viewBox="0 0 28 28" fill="none" xmlns="http://www.w3.org/2000/svg">
<path d="M22.75 3.0625H20.5625V2.625C20.5625 2.2769 20.4242 1.94306 20.1781 1.69692C19.9319 1.45078 19.5981 1.3125 19.25 1.3125C18.9019 1.3125 18.5681 1.45078 18.3219 1.69692C18.0758 1.94306 17.9375 2.2769 17.9375 2.625V3.0625H10.0625V2.625C10.0625 2.2769 9.92422 1.94306 9.67808 1.69692C9.43194 1.45078 9.0981 1.3125 8.75 1.3125C8.4019 1.3125 8.06806 1.45078 7.82192 1.69692C7.57578 1.94306 7.4375 2.2769 7.4375 2.625V3.0625H5.25C4.66984 3.0625 4.11344 3.29297 3.7032 3.7032C3.29297 4.11344 3.0625 4.66984 3.0625 5.25V22.75C3.0625 23.3302 3.29297 23.8866 3.7032 24.2968C4.11344 24.707 4.66984 24.9375 5.25 24.9375H22.75C23.3302 24.9375 23.8866 24.707 24.2968 24.2968C24.707 23.8866 24.9375 23.3302 24.9375 22.75V5.25C24.9375 4.66984 24.707 4.11344 24.2968 3.7032C23.8866 3.29297 23.3302 3.0625 22.75 3.0625ZM7.4375 5.6875C7.4375 6.0356 7.57578 6.36944 7.82192 6.61558C8.06806 6.86172 8.4019 7 8.75 7C9.0981 7 9.43194 6.86172 9.67808 6.61558C9.92422 6.36944 10.0625 6.0356 10.0625 5.6875H17.9375C17.9375 6.0356 18.0758 6.36944 18.3219 6.61558C18.5681 6.86172 18.9019 7 19.25 7C19.5981 7 19.9319 6.86172 20.1781 6.61558C20.4242 6.36944 20.5625 6.0356 20.5625 5.6875H22.3125V8.3125H5.6875V5.6875H7.4375ZM5.6875 22.3125V10.9375H22.3125V22.3125H5.6875ZM15.75 14C15.75 14.3461 15.6474 14.6845 15.4551 14.9722C15.2628 15.26 14.9895 15.4843 14.6697 15.6168C14.3499 15.7492 13.9981 15.7839 13.6586 15.7164C13.3191 15.6489 13.0073 15.4822 12.7626 15.2374C12.5178 14.9927 12.3511 14.6809 12.2836 14.3414C12.2161 14.0019 12.2508 13.6501 12.3832 13.3303C12.5157 13.0105 12.74 12.7372 13.0278 12.5449C13.3155 12.3526 13.6539 12.25 14 12.25C14.4641 12.25 14.9092 12.4344 15.2374 12.7626C15.5656 13.0908 15.75 13.5359 15.75 14ZM21 14C21 14.3461 20.8974 14.6845 20.7051 14.9722C20.5128 15.26 20.2395 15.4843 19.9197 15.6168C19.5999 15.7492 19.2481 15.7839 18.9086 15.7164C18.5691 15.6489 18.2573 15.4822 18.0126 15.2374C17.7678 14.9927 17.6011 14.6809 17.5336 14.3414C17.4661 14.0019 17.5008 13.6501 17.6332 13.3303C17.7657 13.0105 17.99 12.7372 18.2778 12.5449C18.5655 12.3526 18.9039 12.25 19.25 12.25C19.7141 12.25 20.1592 12.4344 20.4874 12.7626C20.8156 13.0908 21 13.5359 21 14ZM10.5 19.25C10.5 19.5961 10.3974 19.9345 10.2051 20.2222C10.0128 20.51 9.73947 20.7343 9.4197 20.8668C9.09993 20.9992 8.74806 21.0339 8.40859 20.9664C8.06913 20.8989 7.75731 20.7322 7.51256 20.4874C7.26782 20.2427 7.10115 19.9309 7.03363 19.5914C6.9661 19.2519 7.00076 18.9001 7.13321 18.5803C7.26566 18.2605 7.48997 17.9872 7.77775 17.7949C8.06554 17.6026 8.40388 17.5 8.75 17.5C9.21413 17.5 9.65925 17.6844 9.98744 18.0126C10.3156 18.3408 10.5 18.7859 10.5 19.25ZM15.75 19.25C15.75 19.5961 15.6474 19.9345 15.4551 20.2222C15.2628 20.51 14.9895 20.7343 14.6697 20.8668C14.3499 20.9992 13.9981 21.0339 13.6586 20.9664C13.3191 20.8989 13.0073 20.7322 12.7626 20.4874C12.5178 20.2427 12.3511 19.9309 12.2836 19.5914C12.2161 19.2519 12.2508 18.9001 12.3832 18.5803C12.5157 18.2605 12.74 17.9872 13.0278 17.7949C13.3155 17.6026 13.6539 17.5 14 17.5C14.4641 17.5 14.9092 17.6844 15.2374 18.0126C15.5656 18.3408 15.75 18.7859 15.75 19.25ZM21 19.25C21 19.5961 20.8974 19.9345 20.7051 20.2222C20.5128 20.51 20.2395 20.7343 19.9197 20.8668C19.5999 20.9992 19.2481 21.0339 18.9086 20.9664C18.5691 20.8989 18.2573 20.7322 18.0126 20.4874C17.7678 20.2427 17.6011 19.9309 17.5336 19.5914C17.4661 19.2519 17.5008 18.9001 17.6332 18.5803C17.7657 18.2605 17.99 17.9872 18.2778 17.7949C18.5655 17.6026 18.9039 17.5 19.25 17.5C19.7141 17.5 20.1592 17.6844 20.4874 18.0126C20.8156 18.3408 21 18.7859 21 19.25Z" fill="white"/>
</svg>
